Commissioner-BlackItalic.ufo
<glyph name="dollar" format="2">
  <advance width="1176"/>
  <unicode hex="0024"/>
  <outline>
    <contour>
      <point x="524" y="-30" type="curve" smooth="yes"/>
      <point x="890" y="-30"/>
      <point x="1050" y="76"/>
      <point x="1110" y="358" type="curve" smooth="yes"/>
      <point x="1158" y="584"/>
      <point x="1072" y="702"/>
      <point x="794" y="816" type="curve" smooth="yes"/>
      <point x="676" y="864"/>
      <point x="630" y="914"/>
      <point x="640" y="964" type="curve" smooth="yes"/>
      <point x="650" y="1010"/>
      <point x="694" y="1030"/>
      <point x="758" y="1030" type="curve" smooth="yes"/>
      <point x="832" y="1030"/>
      <point x="1006" y="990"/>
      <point x="1120" y="904" type="curve"/>
      <point x="1234" y="1274" type="line"/>
      <point x="1116" y="1346"/>
      <point x="892" y="1400"/>
      <point x="694" y="1400" type="curve" smooth="yes"/>
      <point x="366" y="1400"/>
      <point x="210" y="1280"/>
      <point x="156" y="1018" type="curve" smooth="yes"/>
      <point x="102" y="756"/>
      <point x="228" y="634"/>
      <point x="438" y="550" type="curve" smooth="yes"/>
      <point x="564" y="500"/>
      <point x="636" y="454"/>
      <point x="626" y="402" type="curve" smooth="yes"/>
      <point x="616" y="356"/>
      <point x="592" y="332"/>
      <point x="504" y="332" type="curve" smooth="yes"/>
      <point x="372" y="332"/>
      <point x="216" y="386"/>
      <point x="94" y="470" type="curve"/>
      <point x="-16" y="84" type="line"/>
      <point x="82" y="20"/>
      <point x="322" y="-30"/>
    </contour>
    <contour>
      <point x="280" y="-274" type="curve"/>
      <point x="600" y="-274" type="line"/>
      <point x="634" y="-112"/>
      <point x="666" y="38"/>
      <point x="698" y="186" type="curve"/>
      <point x="378" y="186" type="line"/>
      <point x="346" y="38"/>
      <point x="314" y="-112"/>
    </contour>
    <contour>
      <point x="596" y="1208" type="curve"/>
      <point x="916" y="1208" type="line"/>
      <point x="942" y="1334"/>
      <point x="970" y="1466"/>
      <point x="1000" y="1606" type="curve"/>
      <point x="680" y="1606" type="line"/>
      <point x="650" y="1466"/>
      <point x="622" y="1334"/>
    </contour>
  </outline>
</glyph>
<glyph name="percent" format="2">
  <advance width="2008"/>
  <unicode hex="0025"/>
  <outline>
    <contour>
      <point x="284" y="0" type="curve"/>
      <point x="670" y="0" type="line"/>
      <point x="788" y="146"/>
      <point x="892" y="274"/>
      <point x="1042" y="460" type="curve"/>
      <point x="1440" y="954" type="line"/>
      <point x="1592" y="1142"/>
      <point x="1698" y="1272"/>
      <point x="1822" y="1426" type="curve"/>
      <point x="1436" y="1426" type="line"/>
      <point x="1312" y="1272"/>
      <point x="1206" y="1142"/>
      <point x="1054" y="954" type="curve"/>
      <point x="656" y="460" type="line"/>
      <point x="506" y="274"/>
      <point x="402" y="146"/>
    </contour>
    <contour>
      <point x="566" y="708" type="curve" smooth="yes"/>
      <point x="800" y="708"/>
      <point x="956" y="808"/>
      <point x="1004" y="1040" type="curve" smooth="yes"/>
      <point x="1050" y="1260"/>
      <point x="890" y="1458"/>
      <point x="608" y="1458" type="curve" smooth="yes"/>
      <point x="368" y="1458"/>
      <point x="218" y="1346"/>
      <point x="174" y="1142" type="curve" smooth="yes"/>
      <point x="120" y="894"/>
      <point x="280" y="708"/>
    </contour>
    <contour>
      <point x="580" y="970" type="curve"/>
      <point x="506" y="970"/>
      <point x="466" y="1026"/>
      <point x="480" y="1094" type="curve" smooth="yes"/>
      <point x="492" y="1152"/>
      <point x="530" y="1196"/>
      <point x="594" y="1196" type="curve"/>
      <point x="664" y="1196"/>
      <point x="700" y="1132"/>
      <point x="688" y="1072" type="curve" smooth="yes"/>
      <point x="674" y="1004"/>
      <point x="634" y="970"/>
    </contour>
    <contour>
      <point x="1500" y="-32" type="curve" smooth="yes"/>
      <point x="1734" y="-32"/>
      <point x="1890" y="68"/>
      <point x="1938" y="300" type="curve" smooth="yes"/>
      <point x="1984" y="520"/>
      <point x="1824" y="718"/>
      <point x="1542" y="718" type="curve" smooth="yes"/>
      <point x="1302" y="718"/>
      <point x="1152" y="606"/>
      <point x="1108" y="402" type="curve" smooth="yes"/>
      <point x="1054" y="154"/>
      <point x="1214" y="-32"/>
    </contour>
    <contour>
      <point x="1514" y="230" type="curve"/>
      <point x="1440" y="230"/>
      <point x="1400" y="286"/>
      <point x="1414" y="354" type="curve" smooth="yes"/>
      <point x="1426" y="412"/>
      <point x="1464" y="456"/>
      <point x="1528" y="456" type="curve"/>
      <point x="1598" y="456"/>
      <point x="1634" y="392"/>
      <point x="1622" y="332" type="curve" smooth="yes"/>
      <point x="1608" y="264"/>
      <point x="1568" y="230"/>
    </contour>
  </outline>
</glyph>
<glyph name="parenleft" format="2">
  <advance width="882"/>
  <unicode hex="0028"/>
  <outline>
    <contour>
      <point x="446" y="-290" type="curve"/>
      <point x="716" y="-168" type="line"/>
      <point x="570" y="12"/>
      <point x="460" y="262"/>
      <point x="544" y="658" type="curve" smooth="yes"/>
      <point x="628" y="1056"/>
      <point x="850" y="1306"/>
      <point x="1062" y="1454" type="curve"/>
      <point x="782" y="1582" type="line"/>
      <point x="444" y="1432"/>
      <point x="196" y="1146"/>
      <point x="104" y="710" type="curve" smooth="yes"/>
      <point x="12" y="272"/>
      <point x="176" y="-100"/>
    </contour>
  </outline>
</glyph>
<glyph name="hyphen" format="2">
  <advance width="860"/>
  <unicode hex="002D"/>
  <outline>
    <contour>
      <point x="60" y="418" type="line"/>
      <point x="186" y="418"/>
      <point x="306" y="418"/>
      <point x="410" y="418" type="curve"/>
      <point x="514" y="418"/>
      <point x="634" y="418"/>
      <point x="760" y="418" type="curve"/>
      <point x="840" y="798" type="line"/>
      <point x="714" y="798"/>
      <point x="594" y="798"/>
      <point x="490" y="798" type="curve"/>
      <point x="386" y="798"/>
      <point x="266" y="798"/>
      <point x="140" y="798" type="curve"/>
    </contour>
  </outline>
</glyph>
<glyph name="period" format="2">
  <advance width="590"/>
  <unicode hex="002E"/>
  <outline>
    <contour>
      <point x="214" y="-32" type="curve" smooth="yes"/>
      <point x="368" y="-32"/>
      <point x="446" y="44"/>
      <point x="472" y="170" type="curve" smooth="yes"/>
      <point x="500" y="308"/>
      <point x="416" y="438"/>
      <point x="252" y="438" type="curve" smooth="yes"/>
      <point x="96" y="438"/>
      <point x="18" y="362"/>
      <point x="-8" y="234" type="curve" smooth="yes"/>
      <point x="-36" y="100"/>
      <point x="42" y="-32"/>
    </contour>
  </outline>
</glyph>
<glyph name="slash" format="2">
  <advance width="928"/>
  <unicode hex="002F"/>
  <outline>
    <contour>
      <point x="-104" y="0" type="curve"/>
      <point x="340" y="0" type="line"/>
      <point x="422" y="148"/>
      <point x="490" y="274"/>
      <point x="590" y="456" type="curve"/>
      <point x="858" y="948" type="line"/>
      <point x="964" y="1142"/>
      <point x="1036" y="1272"/>
      <point x="1120" y="1426" type="curve"/>
      <point x="676" y="1426" type="line"/>
      <point x="592" y="1272"/>
      <point x="520" y="1142"/>
      <point x="418" y="954" type="curve"/>
      <point x="146" y="456" type="line"/>
      <point x="46" y="274"/>
      <point x="-22" y="148"/>
    </contour>
  </outline>
</glyph>
<glyph name="two" format="2">
  <advance width="1170"/>
  <unicode hex="0032"/>
  <outline>
    <contour>
      <point x="-32" y="0" type="line"/>
      <point x="994" y="0" type="line"/>
      <point x="1076" y="388" type="line"/>
      <point x="958" y="388"/>
      <point x="840" y="388"/>
      <point x="722" y="388" type="curve"/>
      <point x="506" y="388" type="line"/>
      <point x="550" y="292" type="line"/>
      <point x="744" y="410" type="line"/>
      <point x="1022" y="578"/>
      <point x="1142" y="716"/>
      <point x="1184" y="914" type="curve" smooth="yes"/>
      <point x="1246" y="1204"/>
      <point x="1062" y="1412"/>
      <point x="702" y="1412" type="curve" smooth="yes"/>
      <point x="512" y="1412"/>
      <point x="372" y="1370"/>
      <point x="236" y="1318" type="curve"/>
      <point x="182" y="870" type="line"/>
      <point x="314" y="950"/>
      <point x="462" y="1032"/>
      <point x="582" y="1032" type="curve"/>
      <point x="676" y="1032"/>
      <point x="724" y="980"/>
      <point x="706" y="900" type="curve" smooth="yes"/>
      <point x="676" y="762"/>
      <point x="502" y="634"/>
      <point x="250" y="456" type="curve"/>
      <point x="176" y="404"/>
      <point x="106" y="354"/>
      <point x="32" y="302" type="curve"/>
    </contour>
  </outline>
</glyph>
<glyph name="three" format="2">
  <advance width="1192"/>
  <unicode hex="0033"/>
  <outline>
    <contour>
      <point x="490" y="-32" type="curve" smooth="yes"/>
      <point x="886" y="-32"/>
      <point x="1050" y="88"/>
      <point x="1102" y="338" type="curve" smooth="yes"/>
      <point x="1146" y="544"/>
      <point x="1030" y="658"/>
      <point x="908" y="698" type="curve"/>
      <point x="914" y="730" type="line"/>
      <point x="1052" y="756"/>
      <point x="1168" y="812"/>
      <point x="1204" y="984" type="curve" smooth="yes"/>
      <point x="1252" y="1210"/>
      <point x="1066" y="1412"/>
      <point x="712" y="1412" type="curve" smooth="yes"/>
      <point x="522" y="1412"/>
      <point x="382" y="1370"/>
      <point x="246" y="1320" type="curve"/>
      <point x="192" y="888" type="line"/>
      <point x="326" y="960"/>
      <point x="476" y="1032"/>
      <point x="598" y="1032" type="curve"/>
      <point x="692" y="1032"/>
      <point x="730" y="986"/>
      <point x="716" y="916" type="curve" smooth="yes"/>
      <point x="702" y="850"/>
      <point x="656" y="832"/>
      <point x="552" y="832" type="curve"/>
      <point x="490" y="832"/>
      <point x="430" y="832"/>
      <point x="368" y="832" type="curve"/>
      <point x="304" y="534" type="line"/>
      <point x="376" y="534"/>
      <point x="434" y="534"/>
      <point x="506" y="534" type="curve"/>
      <point x="608" y="534"/>
      <point x="658" y="498"/>
      <point x="646" y="434" type="curve" smooth="yes"/>
      <point x="634" y="376"/>
      <point x="590" y="348"/>
      <point x="496" y="348" type="curve"/>
      <point x="368" y="348"/>
      <point x="206" y="404"/>
      <point x="84" y="486" type="curve"/>
      <point x="-30" y="82" type="line"/>
      <point x="62" y="22"/>
      <point x="292" y="-32"/>
    </contour>
  </outline>
</glyph>
<glyph name="equal" format="2">
  <advance width="1180"/>
  <unicode hex="003D"/>
  <outline>
    <contour>
      <point x="30" y="168" type="line"/>
      <point x="180" y="168"/>
      <point x="322" y="168"/>
      <point x="446" y="168" type="curve"/>
      <point x="594" y="168" type="line"/>
      <point x="718" y="168"/>
      <point x="860" y="168"/>
      <point x="1010" y="168" type="curve"/>
      <point x="1092" y="548" type="line"/>
      <point x="942" y="548"/>
      <point x="800" y="548"/>
      <point x="676" y="548" type="curve"/>
      <point x="528" y="548" type="line"/>
      <point x="404" y="548"/>
      <point x="262" y="548"/>
      <point x="112" y="548" type="curve"/>
    </contour>
    <contour>
      <point x="140" y="688" type="line"/>
      <point x="290" y="688"/>
      <point x="432" y="688"/>
      <point x="556" y="688" type="curve"/>
      <point x="704" y="688" type="line"/>
      <point x="828" y="688"/>
      <point x="970" y="688"/>
      <point x="1120" y="688" type="curve"/>
      <point x="1202" y="1068" type="line"/>
      <point x="1052" y="1068"/>
      <point x="910" y="1068"/>
      <point x="786" y="1068" type="curve"/>
      <point x="638" y="1068" type="line"/>
      <point x="514" y="1068"/>
      <point x="372" y="1068"/>
      <point x="222" y="1068" type="curve"/>
    </contour>
  </outline>
</glyph>
<glyph name="B" format="2">
  <advance width="1362"/>
  <unicode hex="0042"/>
  <outline>
    <contour>
      <point x="608" y="0" type="curve"/>
      <point x="1110" y="0"/>
      <point x="1242" y="130"/>
      <point x="1294" y="378" type="curve" smooth="yes"/>
      <point x="1336" y="576"/>
      <point x="1236" y="708"/>
      <point x="1072" y="752" type="curve"/>
      <point x="1080" y="784" type="line"/>
      <point x="1242" y="810"/>
      <point x="1366" y="862"/>
      <point x="1406" y="1046" type="curve" smooth="yes"/>
      <point x="1444" y="1230"/>
      <point x="1376" y="1426"/>
      <point x="862" y="1426" type="curve"/>
      <point x="660" y="1426"/>
      <point x="444" y="1426"/>
      <point x="288" y="1426" type="curve"/>
      <point x="254" y="1270"/>
      <point x="226" y="1138"/>
      <point x="186" y="948" type="curve"/>
      <point x="82" y="458" type="line"/>
      <point x="42" y="272"/>
      <point x="16" y="148"/>
      <point x="-16" y="0" type="curve"/>
      <point x="144" y="0"/>
      <point x="352" y="0"/>
    </contour>
    <contour>
      <point x="538" y="334" type="line"/>
      <point x="552" y="398"/>
      <point x="566" y="462"/>
      <point x="588" y="564" type="curve"/>
      <point x="646" y="844" type="line"/>
      <point x="670" y="954"/>
      <point x="684" y="1028"/>
      <point x="700" y="1100" type="curve"/>
      <point x="804" y="1100" type="line" smooth="yes"/>
      <point x="872" y="1100"/>
      <point x="902" y="1048"/>
      <point x="886" y="976" type="curve" smooth="yes"/>
      <point x="870" y="896"/>
      <point x="822" y="864"/>
      <point x="756" y="864" type="curve" smooth="yes"/>
      <point x="532" y="864" type="line"/>
      <point x="470" y="566" type="line"/>
      <point x="710" y="566" type="line" smooth="yes"/>
      <point x="782" y="566"/>
      <point x="814" y="518"/>
      <point x="800" y="448" type="curve" smooth="yes"/>
      <point x="782" y="366"/>
      <point x="734" y="334"/>
      <point x="670" y="334" type="curve" smooth="yes"/>
    </contour>
  </outline>
</glyph>
<glyph name="C" format="2">
  <advance width="1364"/>
  <unicode hex="0043"/>
  <anchor x="680" y="0" name="bottom"/>
  <anchor x="980" y="1426" name="top"/>
  <outline>
    <contour>
      <point x="772" y="-32" type="curve" smooth="yes"/>
      <point x="900" y="-32"/>
      <point x="1074" y="-10"/>
      <point x="1184" y="34" type="curve"/>
      <point x="1260" y="496" type="line"/>
      <point x="1114" y="408"/>
      <point x="976" y="364"/>
      <point x="872" y="364" type="curve"/>
      <point x="636" y="364"/>
      <point x="568" y="560"/>
      <point x="606" y="742" type="curve" smooth="yes"/>
      <point x="654" y="974"/>
      <point x="802" y="1048"/>
      <point x="954" y="1048" type="curve"/>
      <point x="1084" y="1048"/>
      <point x="1204" y="994"/>
      <point x="1340" y="906" type="curve"/>
      <point x="1468" y="1346" type="line"/>
      <point x="1332" y="1416"/>
      <point x="1126" y="1458"/>
      <point x="960" y="1458" type="curve" smooth="yes"/>
      <point x="466" y="1458"/>
      <point x="198" y="1232"/>
      <point x="110" y="806" type="curve" smooth="yes"/>
      <point x="14" y="348"/>
      <point x="256" y="-32"/>
    </contour>
  </outline>
</glyph>
<glyph name="F" format="2">
  <advance width="1162"/>
  <unicode hex="0046"/>
  <outline>
    <contour>
      <point x="-16" y="0" type="curve"/>
      <point x="464" y="0" type="line"/>
      <point x="496" y="148"/>
      <point x="522" y="272"/>
      <point x="562" y="458" type="curve"/>
      <point x="648" y="868" type="line"/>
      <point x="688" y="1058"/>
      <point x="718" y="1192"/>
      <point x="750" y="1346" type="curve"/>
      <point x="766" y="1426" type="line"/>
      <point x="288" y="1426" type="line"/>
      <point x="254" y="1270"/>
      <point x="226" y="1138"/>
      <point x="186" y="948" type="curve"/>
      <point x="82" y="458" type="line"/>
      <point x="42" y="272"/>
      <point x="16" y="148"/>
    </contour>
    <contour>
      <point x="444" y="490" type="line"/>
      <point x="688" y="490" type="line"/>
      <point x="846" y="490"/>
      <point x="954" y="490"/>
      <point x="1070" y="490" type="curve"/>
      <point x="1150" y="876" type="line"/>
      <point x="1040" y="876"/>
      <point x="932" y="876"/>
      <point x="768" y="876" type="curve"/>
      <point x="524" y="876" type="line"/>
    </contour>
    <contour>
      <point x="588" y="1022" type="line"/>
      <point x="802" y="1022" type="line"/>
      <point x="974" y="1022"/>
      <point x="1094" y="1022"/>
      <point x="1206" y="1022" type="curve"/>
      <point x="1290" y="1426" type="line"/>
      <point x="672" y="1426" type="line"/>
    </contour>
  </outline>
</glyph>
<glyph name="H" format="2">
  <advance width="1502"/>
  <unicode hex="0048"/>
  <anchor x="646" y="0" name="bottom"/>
  <anchor x="796" y="714" name="center"/>
  <anchor x="946" y="1426" name="top"/>
  <anchor x="270" y="1426" name="topleft"/>
  <outline>
    <contour>
      <point x="810" y="0" type="curve"/>
      <point x="1304" y="0" type="line"/>
      <point x="1336" y="148"/>
      <point x="1362" y="272"/>
      <point x="1402" y="458" type="curve"/>
      <point x="1506" y="948" type="line"/>
      <point x="1546" y="1138"/>
      <point x="1574" y="1270"/>
      <point x="1608" y="1426" type="curve"/>
      <point x="1114" y="1426" type="line"/>
      <point x="1080" y="1270"/>
      <point x="1052" y="1138"/>
      <point x="1012" y="948" type="curve"/>
      <point x="908" y="458" type="line"/>
      <point x="868" y="272"/>
      <point x="842" y="148"/>
    </contour>
    <contour>
      <point x="-16" y="0" type="curve"/>
      <point x="478" y="0" type="line"/>
      <point x="510" y="148"/>
      <point x="536" y="272"/>
      <point x="576" y="458" type="curve"/>
      <point x="680" y="948" type="line"/>
      <point x="720" y="1138"/>
      <point x="748" y="1270"/>
      <point x="782" y="1426" type="curve"/>
      <point x="288" y="1426" type="line"/>
      <point x="254" y="1270"/>
      <point x="226" y="1138"/>
      <point x="186" y="948" type="curve"/>
      <point x="82" y="458" type="line"/>
      <point x="42" y="272"/>
      <point x="16" y="148"/>
    </contour>
    <contour>
      <point x="466" y="512" type="line"/>
      <point x="1046" y="512" type="line"/>
      <point x="1132" y="916" type="line"/>
      <point x="552" y="916" type="line"/>
    </contour>
  </outline>
</glyph>
<glyph name="I" format="2">
  <advance width="706"/>
  <unicode hex="0049"/>
  <anchor x="238" y="0" name="bottom"/>
  <anchor x="496" y="0" name="ogonek"/>
  <anchor x="538" y="1426" name="top"/>
  <anchor x="246" y="1426" name="topleft"/>
  <outline>
    <contour>
      <point x="-6" y="0" type="curve"/>
      <point x="496" y="0" type="line"/>
      <point x="528" y="148"/>
      <point x="554" y="272"/>
      <point x="594" y="458" type="curve"/>
      <point x="698" y="948" type="line"/>
      <point x="738" y="1138"/>
      <point x="766" y="1270"/>
      <point x="800" y="1426" type="curve"/>
      <point x="298" y="1426" type="line"/>
      <point x="264" y="1270"/>
      <point x="236" y="1138"/>
      <point x="196" y="948" type="curve"/>
      <point x="92" y="458" type="line"/>
      <point x="52" y="272"/>
      <point x="26" y="148"/>
    </contour>
  </outline>
</glyph>
<glyph name="R" format="2">
  <advance width="1431"/>
  <unicode hex="0052"/>
  <anchor x="607" y="0" name="bottom"/>
  <anchor x="867" y="1426" name="top"/>
  <outline>
    <contour>
      <point x="771" y="0" type="curve"/>
      <point x="1311" y="0" type="line"/>
      <point x="1275" y="110"/>
      <point x="1215" y="288"/>
      <point x="1169" y="422" type="curve"/>
      <point x="1069" y="714" type="line"/>
      <point x="837" y="564" type="line"/>
      <point x="1167" y="564"/>
      <point x="1345" y="668"/>
      <point x="1401" y="930" type="curve" smooth="yes"/>
      <point x="1473" y="1276"/>
      <point x="1279" y="1426"/>
      <point x="905" y="1426" type="curve"/>
      <point x="693" y="1426"/>
      <point x="431" y="1426"/>
      <point x="287" y="1426" type="curve"/>
      <point x="537" y="1058" type="line"/>
      <point x="805" y="1058" type="line" smooth="yes"/>
      <point x="873" y="1058"/>
      <point x="907" y="1004"/>
      <point x="889" y="920" type="curve" smooth="yes"/>
      <point x="867" y="818"/>
      <point x="815" y="796"/>
      <point x="755" y="796" type="curve" smooth="yes"/>
      <point x="547" y="796" type="line"/>
      <point x="485" y="502" type="line"/>
      <point x="839" y="502" type="line"/>
      <point x="589" y="696" type="line"/>
      <point x="697" y="282" type="line"/>
      <point x="721" y="192"/>
      <point x="745" y="102"/>
    </contour>
    <contour>
      <point x="-15" y="0" type="curve"/>
      <point x="467" y="0" type="line"/>
      <point x="499" y="148"/>
      <point x="525" y="272"/>
      <point x="565" y="458" type="curve"/>
      <point x="651" y="868" type="line"/>
      <point x="691" y="1058"/>
      <point x="721" y="1192"/>
      <point x="753" y="1346" type="curve"/>
      <point x="289" y="1426" type="line"/>
      <point x="255" y="1270"/>
      <point x="227" y="1138"/>
      <point x="187" y="948" type="curve"/>
      <point x="83" y="458" type="line"/>
      <point x="43" y="272"/>
      <point x="17" y="148"/>
    </contour>
  </outline>
</glyph>
<glyph name="W" format="2">
  <advance width="2152"/>
  <unicode hex="0057"/>
  <anchor x="958" y="0" name="bottom"/>
  <anchor x="1258" y="1426" name="top"/>
  <outline>
    <contour>
      <point x="266" y="0" type="curve"/>
      <point x="820" y="0" type="line"/>
      <point x="862" y="116"/>
      <point x="914" y="260"/>
      <point x="956" y="376" type="curve"/>
      <point x="1078" y="716" type="line"/>
      <point x="1110" y="716" type="line"/>
      <point x="1094" y="376" type="line"/>
      <point x="1088" y="258"/>
      <point x="1082" y="118"/>
      <point x="1078" y="0" type="curve"/>
      <point x="1670" y="0" type="line"/>
      <point x="1732" y="138"/>
      <point x="1810" y="308"/>
      <point x="1874" y="450" type="curve"/>
      <point x="2078" y="900" type="line"/>
      <point x="2148" y="1056"/>
      <point x="2240" y="1258"/>
      <point x="2316" y="1426" type="curve"/>
      <point x="1748" y="1426" type="line"/>
      <point x="1704" y="1286"/>
      <point x="1654" y="1124"/>
      <point x="1610" y="984" type="curve"/>
      <point x="1484" y="584" type="line"/>
      <point x="1452" y="584" type="line"/>
      <point x="1480" y="980" type="line"/>
      <point x="1490" y="1122"/>
      <point x="1500" y="1284"/>
      <point x="1510" y="1426" type="curve"/>
      <point x="1004" y="1426" type="line"/>
      <point x="958" y="1288"/>
      <point x="900" y="1120"/>
      <point x="854" y="984" type="curve"/>
      <point x="718" y="584" type="line"/>
      <point x="686" y="584" type="line"/>
      <point x="726" y="980" type="line"/>
      <point x="740" y="1122"/>
      <point x="758" y="1284"/>
      <point x="772" y="1426" type="curve"/>
      <point x="224" y="1426" type="line"/>
      <point x="228" y="1258"/>
      <point x="236" y="1058"/>
      <point x="240" y="900" type="curve"/>
      <point x="252" y="450" type="line"/>
      <point x="256" y="310"/>
      <point x="262" y="140"/>
    </contour>
  </outline>
</glyph>
<glyph name="asciicircum" format="2">
  <advance width="1316"/>
  <unicode hex="005E"/>
  <outline>
    <contour>
      <point x="918" y="678" type="curve"/>
      <point x="1284" y="682" type="line"/>
      <point x="1208" y="916"/>
      <point x="1134" y="1146"/>
      <point x="1058" y="1380" type="curve"/>
      <point x="548" y="1380" type="line"/>
      <point x="404" y="1152"/>
      <point x="254" y="914"/>
      <point x="110" y="686" type="curve"/>
      <point x="518" y="686" type="line"/>
      <point x="596" y="794"/>
      <point x="672" y="898"/>
      <point x="750" y="1006" type="curve"/>
      <point x="780" y="1006" type="line"/>
      <point x="826" y="896"/>
      <point x="872" y="788"/>
    </contour>
  </outline>
</glyph>
<glyph name="underscore" format="2">
  <advance width="920"/>
  <unicode hex="005F"/>
  <outline>
    <contour>
      <point x="-214" y="-416" type="line"/>
      <point x="-64" y="-416"/>
      <point x="78" y="-416"/>
      <point x="202" y="-416" type="curve"/>
      <point x="330" y="-416" type="line"/>
      <point x="454" y="-416"/>
      <point x="596" y="-416"/>
      <point x="746" y="-416" type="curve"/>
      <point x="820" y="-60" type="line"/>
      <point x="670" y="-60"/>
      <point x="528" y="-60"/>
      <point x="404" y="-60" type="curve"/>
      <point x="276" y="-60" type="line"/>
      <point x="152" y="-60"/>
      <point x="10" y="-60"/>
      <point x="-140" y="-60" type="curve"/>
    </contour>
  </outline>
</glyph>
<glyph name="a" format="2">
  <advance width="1050"/>
  <unicode hex="0061"/>
  <anchor x="428" y="0" name="bottom"/>
  <anchor x="882" y="0" name="ogonek"/>
  <anchor x="640" y="1004" name="top"/>
  <outline>
    <contour>
      <point x="226" y="-28" type="curve" smooth="yes"/>
      <point x="342" y="-28"/>
      <point x="428" y="34"/>
      <point x="494" y="146" type="curve"/>
      <point x="522" y="146" type="line"/>
      <point x="522" y="0" type="line"/>
      <point x="882" y="0" type="line"/>
      <point x="912" y="142"/>
      <point x="938" y="264"/>
      <point x="962" y="376" type="curve"/>
      <point x="972" y="424" type="line" smooth="yes"/>
      <point x="986" y="488"/>
      <point x="1000" y="552"/>
      <point x="1016" y="626" type="curve" smooth="yes"/>
      <point x="1070" y="884"/>
      <point x="904" y="1036"/>
      <point x="600" y="1036" type="curve" smooth="yes"/>
      <point x="452" y="1036"/>
      <point x="286" y="1002"/>
      <point x="180" y="972" type="curve"/>
      <point x="112" y="600" type="line"/>
      <point x="236" y="648"/>
      <point x="356" y="678"/>
      <point x="462" y="678" type="curve" smooth="yes"/>
      <point x="580" y="678"/>
      <point x="620" y="636"/>
      <point x="612" y="606" type="curve"/>
      <point x="338" y="568" type="line" smooth="yes"/>
      <point x="176" y="546"/>
      <point x="32" y="486"/>
      <point x="-8" y="300" type="curve" smooth="yes"/>
      <point x="-48" y="120"/>
      <point x="46" y="-28"/>
    </contour>
    <contour>
      <point x="470" y="306" type="curve" smooth="yes"/>
      <point x="438" y="306"/>
      <point x="404" y="330"/>
      <point x="412" y="376" type="curve" smooth="yes"/>
      <point x="420" y="422"/>
      <point x="462" y="436"/>
      <point x="494" y="446" type="curve" smooth="yes"/>
      <point x="542" y="458"/>
      <point x="560" y="468"/>
      <point x="582" y="492" type="curve"/>
      <point x="552" y="358" type="line"/>
      <point x="530" y="324"/>
      <point x="508" y="306"/>
    </contour>
  </outline>
</glyph>
<glyph name="b" format="2">
  <advance width="1186"/>
  <unicode hex="0062"/>
  <outline>
    <contour>
      <point x="696" y="-32" type="curve" smooth="yes"/>
      <point x="928" y="-32"/>
      <point x="1080" y="182"/>
      <point x="1140" y="464" type="curve" smooth="yes"/>
      <point x="1204" y="768"/>
      <point x="1120" y="1036"/>
      <point x="860" y="1036" type="curve" smooth="yes"/>
      <point x="776" y="1036"/>
      <point x="698" y="998"/>
      <point x="632" y="912" type="curve"/>
      <point x="600" y="912" type="line"/>
      <point x="616" y="986" type="line"/>
      <point x="656" y="1178"/>
      <point x="692" y="1346"/>
      <point x="724" y="1500" type="curve"/>
      <point x="274" y="1468" type="line"/>
      <point x="238" y="1298"/>
      <point x="206" y="1144"/>
      <point x="172" y="986" type="curve"/>
      <point x="54" y="426" type="line"/>
      <point x="18" y="258"/>
      <point x="-6" y="138"/>
      <point x="-36" y="0" type="curve"/>
      <point x="332" y="0" type="line"/>
      <point x="386" y="114" type="line"/>
      <point x="412" y="114" type="line"/>
      <point x="460" y="16"/>
      <point x="578" y="-32"/>
    </contour>
    <contour>
      <point x="558" y="344" type="curve"/>
      <point x="528" y="344"/>
      <point x="502" y="360"/>
      <point x="490" y="380" type="curve"/>
      <point x="538" y="610" type="line"/>
      <point x="556" y="644"/>
      <point x="586" y="666"/>
      <point x="622" y="666" type="curve"/>
      <point x="688" y="666"/>
      <point x="708" y="574"/>
      <point x="692" y="496" type="curve" smooth="yes"/>
      <point x="674" y="410"/>
      <point x="626" y="344"/>
    </contour>
  </outline>
</glyph>
<glyph name="g" format="2">
  <advance width="1116"/>
  <unicode hex="0067"/>
  <anchor x="466" y="-384" name="bottom"/>
  <anchor x="612" y="1004" name="top"/>
  <outline>
    <contour>
      <point x="374" y="-412" type="curve" smooth="yes"/>
      <point x="636" y="-412"/>
      <point x="910" y="-330"/>
      <point x="970" y="-52" type="curve" smooth="yes"/>
      <point x="1020" y="182"/>
      <point x="848" y="292"/>
      <point x="638" y="292" type="curve" smooth="yes"/>
      <point x="558" y="292" type="line" smooth="yes"/>
      <point x="518" y="292"/>
      <point x="484" y="302"/>
      <point x="490" y="332" type="curve" smooth="yes"/>
      <point x="496" y="358"/>
      <point x="534" y="364"/>
      <point x="604" y="374" type="curve" smooth="yes"/>
      <point x="766" y="398"/>
      <point x="950" y="460"/>
      <point x="990" y="634" type="curve" smooth="yes"/>
      <point x="1012" y="730"/>
      <point x="994" y="806"/>
      <point x="936" y="878" type="curve"/>
      <point x="820" y="748" type="line"/>
      <point x="926" y="748"/>
      <point x="1024" y="748"/>
      <point x="1140" y="748" type="curve"/>
      <point x="1196" y="1012" type="line"/>
      <point x="902" y="1012" type="line" smooth="yes"/>
      <point x="758" y="1012"/>
      <point x="700" y="1036"/>
      <point x="510" y="1036" type="curve" smooth="yes"/>
      <point x="238" y="1036"/>
      <point x="112" y="898"/>
      <point x="80" y="740" type="curve" smooth="yes"/>
      <point x="48" y="586"/>
      <point x="120" y="462"/>
      <point x="238" y="386" type="curve"/>
      <point x="238" y="360" type="line"/>
      <point x="172" y="340"/>
      <point x="78" y="304"/>
      <point x="60" y="210" type="curve" smooth="yes"/>
      <point x="40" y="110"/>
      <point x="108" y="54"/>
      <point x="158" y="34" type="curve"/>
      <point x="158" y="8" type="line"/>
      <point x="72" y="-4"/>
      <point x="-50" y="-42"/>
      <point x="-72" y="-142" type="curve" smooth="yes"/>
      <point x="-118" y="-352"/>
      <point x="142" y="-412"/>
    </contour>
    <contour>
      <point x="424" y="-148" type="curve"/>
      <point x="320" y="-148"/>
      <point x="280" y="-116"/>
      <point x="286" y="-84" type="curve" smooth="yes"/>
      <point x="294" y="-40"/>
      <point x="366" y="-30"/>
      <point x="404" y="-28" type="curve"/>
      <point x="428" y="-28" type="line" smooth="yes"/>
      <point x="544" y="-28"/>
      <point x="560" y="-66"/>
      <point x="554" y="-94" type="curve" smooth="yes"/>
      <point x="548" y="-124"/>
      <point x="498" y="-148"/>
    </contour>
    <contour>
      <point x="520" y="560" type="curve"/>
      <point x="484" y="576"/>
      <point x="456" y="612"/>
      <point x="462" y="642" type="curve" smooth="yes"/>
      <point x="470" y="674"/>
      <point x="502" y="692"/>
      <point x="538" y="692" type="curve"/>
      <point x="608" y="692"/>
      <point x="636" y="654"/>
      <point x="628" y="622" type="curve" smooth="yes"/>
      <point x="618" y="582"/>
      <point x="570" y="562"/>
    </contour>
  </outline>
</glyph>
<glyph name="k" format="2">
  <advance width="1218"/>
  <unicode hex="006B"/>
  <anchor x="502" y="0" name="bottom"/>
  <anchor x="810" y="1466" name="top"/>
  <outline>
    <contour>
      <point x="606" y="0" type="curve"/>
      <point x="1112" y="0" type="line"/>
      <point x="1056" y="126"/>
      <point x="1002" y="254"/>
      <point x="946" y="380" type="curve"/>
      <point x="832" y="642" type="line"/>
      <point x="898" y="452" type="line"/>
      <point x="1034" y="634" type="line"/>
      <point x="1128" y="758"/>
      <point x="1218" y="880"/>
      <point x="1312" y="1004" type="curve"/>
      <point x="784" y="1004" type="line"/>
      <point x="740" y="924"/>
      <point x="698" y="846"/>
      <point x="656" y="766" type="curve"/>
      <point x="586" y="636" type="line"/>
      <point x="510" y="636" type="line"/>
      <point x="450" y="352" type="line"/>
      <point x="530" y="352" type="line"/>
      <point x="560" y="216" type="line"/>
      <point x="574" y="144"/>
      <point x="592" y="72"/>
    </contour>
    <contour>
      <point x="-36" y="0" type="curve"/>
      <point x="408" y="0" type="line"/>
      <point x="432" y="114"/>
      <point x="454" y="214"/>
      <point x="478" y="332" type="curve"/>
      <point x="616" y="986" type="line"/>
      <point x="656" y="1178"/>
      <point x="692" y="1346"/>
      <point x="724" y="1500" type="curve"/>
      <point x="274" y="1468" type="line"/>
      <point x="238" y="1298"/>
      <point x="206" y="1144"/>
      <point x="172" y="986" type="curve"/>
      <point x="54" y="426" type="line"/>
      <point x="18" y="258"/>
      <point x="-6" y="138"/>
    </contour>
  </outline>
</glyph>
<glyph name="t" format="2">
  <advance width="872"/>
  <unicode hex="0074"/>
  <anchor x="358" y="0" name="bottom"/>
  <anchor x="448" y="502" name="center"/>
  <anchor x="610" y="1360" name="top"/>
  <anchor x="720" y="1004" name="topright"/>
  <outline>
    <contour>
      <point x="494" y="-32" type="curve" smooth="yes"/>
      <point x="568" y="-32"/>
      <point x="684" y="-16"/>
      <point x="732" y="14" type="curve"/>
      <point x="782" y="362" type="line"/>
      <point x="730" y="328"/>
      <point x="684" y="322"/>
      <point x="650" y="322" type="curve" smooth="yes"/>
      <point x="578" y="322"/>
      <point x="568" y="384"/>
      <point x="586" y="474" type="curve" smooth="yes"/>
      <point x="676" y="900" type="line"/>
      <point x="720" y="1100"/>
      <point x="746" y="1238"/>
      <point x="782" y="1402" type="curve"/>
      <point x="328" y="1330" type="line"/>
      <point x="300" y="1192"/>
      <point x="272" y="1068"/>
      <point x="238" y="900" type="curve"/>
      <point x="168" y="570"/>
      <point x="148" y="472"/>
      <point x="124" y="362" type="curve" smooth="yes"/>
      <point x="66" y="82"/>
      <point x="232" y="-32"/>
    </contour>
    <contour>
      <point x="60" y="678" type="line"/>
      <point x="326" y="678" type="line"/>
      <point x="530" y="678" type="line"/>
      <point x="636" y="678"/>
      <point x="754" y="678"/>
      <point x="870" y="678" type="curve"/>
      <point x="940" y="1004" type="line"/>
      <point x="130" y="1004" type="line"/>
    </contour>
  </outline>
</glyph>
<glyph name="u" format="2">
  <advance width="1168"/>
  <unicode hex="0075"/>
  <anchor x="476" y="0" name="bottom"/>
  <anchor x="992" y="0" name="ogonek"/>
  <anchor x="686" y="1004" name="top"/>
  <anchor x="1256" y="1004" name="topright"/>
  <outline>
    <contour>
      <point x="274" y="-32" type="curve" smooth="yes"/>
      <point x="396" y="-32"/>
      <point x="520" y="22"/>
      <point x="600" y="142" type="curve"/>
      <point x="634" y="142" type="line"/>
      <point x="624" y="0" type="line"/>
      <point x="992" y="0" type="line"/>
      <point x="1022" y="138"/>
      <point x="1046" y="258"/>
      <point x="1082" y="426" type="curve"/>
      <point x="1108" y="546" type="line"/>
      <point x="1150" y="746"/>
      <point x="1174" y="866"/>
      <point x="1204" y="1004" type="curve"/>
      <point x="760" y="1004" type="line"/>
      <point x="730" y="866"/>
      <point x="706" y="746"/>
      <point x="676" y="604" type="curve"/>
      <point x="636" y="412" type="line"/>
      <point x="606" y="378"/>
      <point x="578" y="358"/>
      <point x="542" y="358" type="curve" smooth="yes"/>
      <point x="492" y="358"/>
      <point x="488" y="416"/>
      <point x="502" y="484" type="curve"/>
      <point x="526" y="604" type="line"/>
      <point x="556" y="746"/>
      <point x="582" y="878"/>
      <point x="612" y="1016" type="curve"/>
      <point x="166" y="1004" type="line"/>
      <point x="136" y="866"/>
      <point x="112" y="746"/>
      <point x="70" y="546" type="curve"/>
      <point x="54" y="468"/>
      <point x="40" y="410"/>
      <point x="28" y="352" type="curve" smooth="yes"/>
      <point x="-20" y="124"/>
      <point x="64" y="-32"/>
    </contour>
  </outline>
</glyph>
<glyph name="v" format="2">
  <advance width="1152"/>
  <unicode hex="0076"/>
  <outline>
    <contour>
      <point x="240" y="0" type="curve"/>
      <point x="706" y="0" type="line"/>
      <point x="774" y="126"/>
      <point x="842" y="252"/>
      <point x="910" y="376" type="curve"/>
      <point x="1008" y="556" type="line"/>
      <point x="1090" y="706"/>
      <point x="1172" y="856"/>
      <point x="1252" y="1004" type="curve"/>
      <point x="752" y="1004" type="line"/>
      <point x="720" y="908"/>
      <point x="684" y="796"/>
      <point x="646" y="684" type="curve"/>
      <point x="576" y="476" type="line"/>
      <point x="544" y="476" type="line"/>
      <point x="554" y="684" type="line"/>
      <point x="560" y="796"/>
      <point x="566" y="910"/>
      <point x="570" y="1016" type="curve"/>
      <point x="112" y="1004" type="line"/>
      <point x="130" y="860"/>
      <point x="150" y="706"/>
      <point x="168" y="558" type="curve"/>
      <point x="192" y="380" type="line"/>
      <point x="208" y="254"/>
      <point x="224" y="126"/>
    </contour>
  </outline>
</glyph>
<glyph name="x" format="2">
  <advance width="1212"/>
  <unicode hex="0078"/>
  <outline>
    <contour>
      <point x="-86" y="0" type="curve"/>
      <point x="434" y="0" type="line"/>
      <point x="460" y="64"/>
      <point x="478" y="108"/>
      <point x="506" y="176" type="curve"/>
      <point x="554" y="294" type="line"/>
      <point x="580" y="294" type="line"/>
      <point x="588" y="166" type="line"/>
      <point x="592" y="104"/>
      <point x="594" y="60"/>
      <point x="598" y="0" type="curve"/>
      <point x="1098" y="0" type="line"/>
      <point x="1048" y="136"/>
      <point x="1016" y="224"/>
      <point x="980" y="322" type="curve"/>
      <point x="890" y="568" type="line"/>
      <point x="896" y="482" type="line"/>
      <point x="1070" y="702" type="line"/>
      <point x="1150" y="802"/>
      <point x="1204" y="870"/>
      <point x="1310" y="1004" type="curve"/>
      <point x="772" y="1004" type="line"/>
      <point x="744" y="940"/>
      <point x="722" y="892"/>
      <point x="692" y="824" type="curve"/>
      <point x="640" y="706" type="line"/>
      <point x="610" y="706" type="line"/>
      <point x="598" y="826" type="line"/>
      <point x="592" y="892"/>
      <point x="586" y="950"/>
      <point x="580" y="1016" type="curve"/>
      <point x="114" y="1004" type="line"/>
      <point x="156" y="878"/>
      <point x="182" y="800"/>
      <point x="214" y="700" type="curve"/>
      <point x="286" y="482" type="line"/>
      <point x="304" y="568" type="line"/>
      <point x="140" y="328" type="line"/>
      <point x="64" y="218"/>
      <point x="12" y="142"/>
    </contour>
  </outline>
</glyph>
<glyph name="y" format="2">
  <advance width="1166"/>
  <unicode hex="0079"/>
  <anchor x="896" y="0" name="bottom"/>
  <anchor x="688" y="1004" name="top"/>
  <outline>
    <contour>
      <point x="-24" y="-396" type="curve"/>
      <point x="464" y="-384" type="line"/>
      <point x="548" y="-240"/>
      <point x="646" y="-70"/>
      <point x="792" y="184" type="curve"/>
      <point x="956" y="466" type="line"/>
      <point x="1102" y="718"/>
      <point x="1172" y="842"/>
      <point x="1266" y="1004" type="curve"/>
      <point x="766" y="1004" type="line"/>
      <point x="726" y="892"/>
      <point x="690" y="786"/>
      <point x="650" y="674" type="curve"/>
      <point x="576" y="460" type="line"/>
      <point x="544" y="460" type="line"/>
      <point x="554" y="676" type="line"/>
      <point x="558" y="792"/>
      <point x="566" y="900"/>
      <point x="570" y="1016" type="curve"/>
      <point x="112" y="1004" type="line"/>
      <point x="130" y="860"/>
      <point x="150" y="708"/>
      <point x="168" y="564" type="curve"/>
      <point x="190" y="384" type="line"/>
      <point x="208" y="246"/>
      <point x="224" y="108"/>
      <point x="242" y="-30" type="curve"/>
      <point x="252" y="60" type="line"/>
      <point x="164" y="-86"/>
      <point x="64" y="-250"/>
    </contour>
  </outline>
</glyph>
<glyph name="cent" format="2">
  <advance width="948"/>
  <unicode hex="00A2"/>
  <outline>
    <contour>
      <point x="248" y="-274" type="curve"/>
      <point x="548" y="-274" type="line"/>
      <point x="582" y="-112"/>
      <point x="616" y="44"/>
      <point x="648" y="198" type="curve"/>
      <point x="348" y="198" type="line"/>
      <point x="316" y="46"/>
      <point x="284" y="-104"/>
    </contour>
    <contour>
      <point x="480" y="826" type="curve"/>
      <point x="780" y="826" type="line"/>
      <point x="810" y="964"/>
      <point x="840" y="1104"/>
      <point x="872" y="1256" type="curve"/>
      <point x="572" y="1256" type="line"/>
      <point x="540" y="1108"/>
      <point x="510" y="966"/>
    </contour>
    <contour>
      <point x="580" y="-26" type="curve" smooth="yes"/>
      <point x="670" y="-26"/>
      <point x="748" y="-14"/>
      <point x="802" y="12" type="curve"/>
      <point x="864" y="388" type="line"/>
      <point x="804" y="350"/>
      <point x="742" y="332"/>
      <point x="672" y="332" type="curve"/>
      <point x="548" y="332"/>
      <point x="464" y="402"/>
      <point x="494" y="530" type="curve" smooth="yes"/>
      <point x="516" y="620"/>
      <point x="590" y="666"/>
      <point x="672" y="666" type="curve"/>
      <point x="720" y="666"/>
      <point x="802" y="656"/>
      <point x="900" y="588" type="curve"/>
      <point x="1006" y="964" type="line"/>
      <point x="896" y="1012"/>
      <point x="776" y="1034"/>
      <point x="652" y="1034" type="curve" smooth="yes"/>
      <point x="308" y="1034"/>
      <point x="108" y="850"/>
      <point x="48" y="568" type="curve" smooth="yes"/>
      <point x="-30" y="200"/>
      <point x="194" y="-26"/>
    </contour>
  </outline>
</glyph>
<glyph name="yen" format="2">
  <advance width="1358"/>
  <unicode hex="00A5"/>
  <outline>
    <contour>
      <point x="468" y="440" type="line"/>
      <point x="878" y="440" type="line"/>
      <point x="1262" y="1008" type="line"/>
      <point x="1350" y="1138"/>
      <point x="1434" y="1262"/>
      <point x="1514" y="1380" type="curve"/>
      <point x="964" y="1380" type="line"/>
      <point x="908" y="1250"/>
      <point x="882" y="1190"/>
      <point x="838" y="1088" type="curve"/>
      <point x="766" y="920" type="line"/>
      <point x="738" y="920" type="line"/>
      <point x="728" y="1076" type="line"/>
      <point x="722" y="1170"/>
      <point x="716" y="1254"/>
      <point x="708" y="1380" type="curve"/>
      <point x="214" y="1380" type="line"/>
      <point x="266" y="1188"/>
      <point x="286" y="1114"/>
      <point x="316" y="1002" type="curve"/>
    </contour>
    <contour>
      <point x="344" y="0" type="curve"/>
      <point x="812" y="0" type="line"/>
      <point x="842" y="142"/>
      <point x="868" y="264"/>
      <point x="904" y="434" type="curve"/>
      <point x="986" y="822" type="line"/>
      <point x="518" y="822" type="line"/>
      <point x="436" y="436" type="line"/>
      <point x="400" y="266"/>
      <point x="374" y="142"/>
    </contour>
    <contour>
      <point x="56" y="194" type="line"/>
      <point x="206" y="194"/>
      <point x="348" y="194"/>
      <point x="472" y="194" type="curve"/>
      <point x="760" y="194" type="line"/>
      <point x="884" y="194"/>
      <point x="1026" y="194"/>
      <point x="1176" y="194" type="curve"/>
      <point x="1232" y="454" type="line"/>
      <point x="1082" y="454"/>
      <point x="940" y="454"/>
      <point x="816" y="454" type="curve"/>
      <point x="528" y="454" type="line"/>
      <point x="404" y="454"/>
      <point x="262" y="454"/>
      <point x="112" y="454" type="curve"/>
    </contour>
    <contour>
      <point x="132" y="552" type="line"/>
      <point x="282" y="552"/>
      <point x="424" y="552"/>
      <point x="548" y="552" type="curve"/>
      <point x="836" y="552" type="line"/>
      <point x="960" y="552"/>
      <point x="1102" y="552"/>
      <point x="1252" y="552" type="curve"/>
      <point x="1308" y="812" type="line"/>
      <point x="1158" y="812"/>
      <point x="1016" y="812"/>
      <point x="892" y="812" type="curve"/>
      <point x="604" y="812" type="line"/>
      <point x="480" y="812"/>
      <point x="338" y="812"/>
      <point x="188" y="812" type="curve"/>
    </contour>
  </outline>
</glyph>
<glyph name="brokenbar" format="2">
  <advance width="604"/>
  <unicode hex="00A6"/>
  <outline>
    <contour>
      <point x="156" y="712" type="line"/>
      <point x="536" y="712" type="line"/>
      <point x="576" y="894" type="line"/>
      <point x="622" y="1110"/>
      <point x="666" y="1318"/>
      <point x="716" y="1552" type="curve"/>
      <point x="336" y="1552" type="line"/>
      <point x="286" y="1318"/>
      <point x="242" y="1110"/>
      <point x="196" y="894" type="curve"/>
    </contour>
    <contour>
      <point x="-64" y="-328" type="curve"/>
      <point x="316" y="-328" type="line"/>
      <point x="366" y="-94"/>
      <point x="410" y="114"/>
      <point x="456" y="330" type="curve"/>
      <point x="494" y="512" type="line"/>
      <point x="114" y="512" type="line"/>
      <point x="76" y="330" type="line"/>
      <point x="30" y="114"/>
      <point x="-14" y="-94"/>
    </contour>
  </outline>
</glyph>
<glyph name="section" format="2">
  <advance width="1234"/>
  <unicode hex="00A7"/>
  <outline>
    <contour>
      <point x="430" y="-272" type="curve" smooth="yes"/>
      <point x="756" y="-272"/>
      <point x="912" y="-140"/>
      <point x="952" y="48" type="curve" smooth="yes"/>
      <point x="1000" y="270"/>
      <point x="908" y="370"/>
      <point x="658" y="472" type="curve" smooth="yes"/>
      <point x="526" y="526"/>
      <point x="506" y="562"/>
      <point x="516" y="606" type="curve" smooth="yes"/>
      <point x="528" y="660"/>
      <point x="588" y="692"/>
      <point x="646" y="700" type="curve"/>
      <point x="526" y="954" type="line"/>
      <point x="316" y="942"/>
      <point x="114" y="848"/>
      <point x="70" y="642" type="curve" smooth="yes"/>
      <point x="38" y="494"/>
      <point x="90" y="358"/>
      <point x="326" y="258" type="curve" smooth="yes"/>
      <point x="486" y="190"/>
      <point x="528" y="160"/>
      <point x="514" y="108" type="curve" smooth="yes"/>
      <point x="502" y="64"/>
      <point x="442" y="48"/>
      <point x="366" y="48" type="curve"/>
      <point x="242" y="48"/>
      <point x="96" y="118"/>
      <point x="6" y="192" type="curve"/>
      <point x="-92" y="-158" type="line"/>
      <point x="18" y="-214"/>
      <point x="174" y="-272"/>
    </contour>
    <contour>
      <point x="784" y="232" type="line"/>
      <point x="1004" y="252"/>
      <point x="1164" y="350"/>
      <point x="1204" y="544" type="curve" smooth="yes"/>
      <point x="1242" y="722"/>
      <point x="1152" y="822"/>
      <point x="906" y="922" type="curve" smooth="yes"/>
      <point x="782" y="972"/>
      <point x="752" y="1012"/>
      <point x="762" y="1056" type="curve" smooth="yes"/>
      <point x="772" y="1098"/>
      <point x="828" y="1120"/>
      <point x="882" y="1120" type="curve"/>
      <point x="966" y="1120"/>
      <point x="1104" y="1074"/>
      <point x="1198" y="998" type="curve"/>
      <point x="1298" y="1350" type="line"/>
      <point x="1214" y="1404"/>
      <point x="1044" y="1458"/>
      <point x="814" y="1458" type="curve" smooth="yes"/>
      <point x="528" y="1458"/>
      <point x="366" y="1340"/>
      <point x="320" y="1124" type="curve" smooth="yes"/>
      <point x="278" y="930"/>
      <point x="352" y="800"/>
      <point x="574" y="708" type="curve" smooth="yes"/>
      <point x="732" y="642"/>
      <point x="776" y="610"/>
      <point x="762" y="554" type="curve" smooth="yes"/>
      <point x="750" y="508"/>
      <point x="696" y="472"/>
      <point x="622" y="464" type="curve"/>
    </contour>
  </outline>
</glyph>
<glyph name="ordfeminine" format="2">
  <advance width="828"/>
  <unicode hex="00AA"/>
  <outline>
    <contour>
      <point x="316" y="652" type="curve" smooth="yes"/>
      <point x="406" y="652"/>
      <point x="472" y="700"/>
      <point x="522" y="784" type="curve"/>
      <point x="542" y="784" type="line"/>
      <point x="542" y="672" type="line"/>
      <point x="804" y="672" type="line"/>
      <point x="826" y="774"/>
      <point x="846" y="868"/>
      <point x="864" y="952" type="curve"/>
      <point x="872" y="990" type="line" smooth="yes"/>
      <point x="884" y="1044"/>
      <point x="892" y="1082"/>
      <point x="906" y="1150" type="curve" smooth="yes"/>
      <point x="946" y="1342"/>
      <point x="822" y="1458"/>
      <point x="594" y="1458" type="curve" smooth="yes"/>
      <point x="482" y="1458"/>
      <point x="358" y="1432"/>
      <point x="278" y="1410" type="curve"/>
      <point x="230" y="1138" type="line"/>
      <point x="326" y="1176"/>
      <point x="418" y="1198"/>
      <point x="494" y="1198" type="curve" smooth="yes"/>
      <point x="584" y="1198"/>
      <point x="620" y="1164"/>
      <point x="612" y="1134" type="curve"/>
      <point x="400" y="1104" type="line" smooth="yes"/>
      <point x="276" y="1086"/>
      <point x="168" y="1042"/>
      <point x="136" y="900" type="curve" smooth="yes"/>
      <point x="104" y="762"/>
      <point x="178" y="652"/>
    </contour>
    <contour>
      <point x="492" y="894" type="curve" smooth="yes"/>
      <point x="462" y="894"/>
      <point x="434" y="916"/>
      <point x="442" y="956" type="curve" smooth="yes"/>
      <point x="450" y="992"/>
      <point x="484" y="1004"/>
      <point x="512" y="1012" type="curve" smooth="yes"/>
      <point x="552" y="1024"/>
      <point x="572" y="1032"/>
      <point x="590" y="1050" type="curve"/>
      <point x="566" y="942" type="line"/>
      <point x="546" y="910"/>
      <point x="522" y="894"/>
    </contour>
  </outline>
</glyph>
<glyph name="plusminus" format="2">
  <advance width="1180"/>
  <unicode hex="00B1"/>
  <outline>
    <contour>
      <point x="-26" y="0" type="line"/>
      <point x="124" y="0"/>
      <point x="266" y="0"/>
      <point x="390" y="0" type="curve"/>
      <point x="578" y="0" type="line"/>
      <point x="702" y="0"/>
      <point x="844" y="0"/>
      <point x="994" y="0" type="curve"/>
      <point x="1076" y="380" type="line"/>
      <point x="926" y="380"/>
      <point x="784" y="380"/>
      <point x="660" y="380" type="curve"/>
      <point x="472" y="380" type="line"/>
      <point x="348" y="380"/>
      <point x="206" y="380"/>
      <point x="56" y="380" type="curve"/>
    </contour>
    <contour>
      <point x="132" y="748" type="line"/>
      <point x="282" y="748"/>
      <point x="424" y="748"/>
      <point x="548" y="748" type="curve"/>
      <point x="736" y="748" type="line"/>
      <point x="860" y="748"/>
      <point x="1002" y="748"/>
      <point x="1152" y="748" type="curve"/>
      <point x="1234" y="1128" type="line"/>
      <point x="1084" y="1128"/>
      <point x="942" y="1128"/>
      <point x="818" y="1128" type="curve"/>
      <point x="630" y="1128" type="line"/>
      <point x="506" y="1128"/>
      <point x="364" y="1128"/>
      <point x="214" y="1128" type="curve"/>
    </contour>
    <contour>
      <point x="380" y="448" type="curve"/>
      <point x="774" y="448" type="line"/>
      <point x="806" y="598"/>
      <point x="836" y="740"/>
      <point x="862" y="864" type="curve"/>
      <point x="894" y="1012" type="line"/>
      <point x="920" y="1136"/>
      <point x="950" y="1278"/>
      <point x="982" y="1428" type="curve"/>
      <point x="588" y="1428" type="line"/>
      <point x="556" y="1278"/>
      <point x="526" y="1136"/>
      <point x="500" y="1012" type="curve"/>
      <point x="468" y="864" type="line"/>
      <point x="442" y="740"/>
      <point x="412" y="598"/>
    </contour>
  </outline>
</glyph>
<glyph name="ordmasculine" format="2">
  <advance width="928"/>
  <unicode hex="00BA"/>
  <outline>
    <contour>
      <point x="550" y="648" type="curve" smooth="yes"/>
      <point x="794" y="648"/>
      <point x="948" y="786"/>
      <point x="996" y="1010" type="curve" smooth="yes"/>
      <point x="1046" y="1240"/>
      <point x="912" y="1458"/>
      <point x="612" y="1458" type="curve" smooth="yes"/>
      <point x="366" y="1458"/>
      <point x="214" y="1324"/>
      <point x="166" y="1094" type="curve" smooth="yes"/>
      <point x="118" y="862"/>
      <point x="244" y="648"/>
    </contour>
    <contour>
      <point x="558" y="906" type="curve"/>
      <point x="496" y="906"/>
      <point x="470" y="982"/>
      <point x="488" y="1064" type="curve" smooth="yes"/>
      <point x="506" y="1150"/>
      <point x="548" y="1200"/>
      <point x="606" y="1200" type="curve"/>
      <point x="674" y="1200"/>
      <point x="688" y="1120"/>
      <point x="672" y="1040" type="curve" smooth="yes"/>
      <point x="658" y="970"/>
      <point x="620" y="906"/>
    </contour>
  </outline>
</glyph>
<glyph name="Oslash" format="2">
  <advance width="1622"/>
  <unicode hex="00D8"/>
  <anchor x="706" y="0" name="bottom"/>
  <anchor x="856" y="714" name="center"/>
  <anchor x="1040" y="0" name="ogonek"/>
  <anchor x="1006" y="1426" name="top"/>
  <anchor x="242" y="1426" name="topleft"/>
  <anchor x="1586" y="1426" name="topright"/>
  <outline>
    <contour>
      <point x="800" y="-32" type="curve" smooth="yes"/>
      <point x="1246" y="-32"/>
      <point x="1518" y="238"/>
      <point x="1602" y="630" type="curve" smooth="yes"/>
      <point x="1698" y="1076"/>
      <point x="1454" y="1458"/>
      <point x="912" y="1458" type="curve" smooth="yes"/>
      <point x="466" y="1458"/>
      <point x="194" y="1206"/>
      <point x="110" y="806" type="curve" smooth="yes"/>
      <point x="18" y="370"/>
      <point x="238" y="-32"/>
    </contour>
    <contour>
      <point x="808" y="364" type="curve"/>
      <point x="646" y="364"/>
      <point x="564" y="544"/>
      <point x="608" y="746" type="curve" smooth="yes"/>
      <point x="648" y="932"/>
      <point x="756" y="1062"/>
      <point x="906" y="1062" type="curve"/>
      <point x="1078" y="1062"/>
      <point x="1142" y="874"/>
      <point x="1100" y="680" type="curve" smooth="yes"/>
      <point x="1058" y="482"/>
      <point x="950" y="364"/>
    </contour>
    <contour>
      <point x="270" y="-178" type="line"/>
      <point x="420" y="-6"/>
      <point x="556" y="152"/>
      <point x="722" y="342" type="curve"/>
      <point x="1176" y="864" type="line"/>
      <point x="1340" y="1054"/>
      <point x="1476" y="1210"/>
      <point x="1630" y="1388" type="curve"/>
      <point x="1414" y="1558" type="line"/>
      <point x="1262" y="1382"/>
      <point x="1126" y="1226"/>
      <point x="958" y="1032" type="curve"/>
      <point x="514" y="522" type="line"/>
      <point x="350" y="334"/>
      <point x="224" y="188"/>
      <point x="64" y="4" type="curve"/>
    </contour>
  </outline>
</glyph>
<glyph name="Thorn" format="2">
  <advance width="1346"/>
  <unicode hex="00DE"/>
  <outline>
    <contour>
      <point x="-16" y="0" type="curve"/>
      <point x="466" y="0" type="line"/>
      <point x="498" y="148"/>
      <point x="524" y="272"/>
      <point x="564" y="458" type="curve"/>
      <point x="668" y="948" type="line"/>
      <point x="708" y="1138"/>
      <point x="736" y="1270"/>
      <point x="770" y="1426" type="curve"/>
      <point x="288" y="1426" type="line"/>
      <point x="254" y="1270"/>
      <point x="226" y="1138"/>
      <point x="186" y="948" type="curve"/>
      <point x="82" y="458" type="line"/>
      <point x="42" y="272"/>
      <point x="16" y="148"/>
    </contour>
    <contour>
      <point x="764" y="244" type="curve"/>
      <point x="1108" y="244"/>
      <point x="1284" y="396"/>
      <point x="1348" y="702" type="curve" smooth="yes"/>
      <point x="1430" y="1090"/>
      <point x="1244" y="1244"/>
      <point x="874" y="1244" type="curve"/>
      <point x="788" y="1244"/>
      <point x="716" y="1244"/>
      <point x="670" y="1244" type="curve"/>
      <point x="592" y="874" type="line"/>
      <point x="772" y="874" type="line" smooth="yes"/>
      <point x="838" y="874"/>
      <point x="872" y="814"/>
      <point x="852" y="720" type="curve" smooth="yes"/>
      <point x="832" y="624"/>
      <point x="796" y="588"/>
      <point x="716" y="588" type="curve" smooth="yes"/>
      <point x="532" y="588" type="line"/>
      <point x="460" y="244" type="line"/>
      <point x="538" y="244"/>
      <point x="666" y="244"/>
    </contour>
  </outline>
</glyph>
<glyph name="oslash" format="2">
  <advance width="1196"/>
  <unicode hex="00F8"/>
  <anchor x="704" y="1004" name="top"/>
  <outline>
    <contour>
      <point x="558" y="-32" type="curve" smooth="yes"/>
      <point x="884" y="-32"/>
      <point x="1086" y="148"/>
      <point x="1150" y="448" type="curve" smooth="yes"/>
      <point x="1214" y="748"/>
      <point x="1038" y="1036"/>
      <point x="638" y="1036" type="curve" smooth="yes"/>
      <point x="310" y="1036"/>
      <point x="110" y="858"/>
      <point x="46" y="558" type="curve" smooth="yes"/>
      <point x="-16" y="258"/>
      <point x="144" y="-32"/>
    </contour>
    <contour>
      <point x="560" y="282" type="curve"/>
      <point x="458" y="282"/>
      <point x="420" y="396"/>
      <point x="450" y="520" type="curve" smooth="yes"/>
      <point x="480" y="642"/>
      <point x="548" y="722"/>
      <point x="646" y="722" type="curve"/>
      <point x="754" y="722"/>
      <point x="774" y="600"/>
      <point x="746" y="484" type="curve" smooth="yes"/>
      <point x="722" y="372"/>
      <point x="658" y="282"/>
    </contour>
    <contour>
      <point x="152" y="-164" type="line"/>
      <point x="264" y="-36"/>
      <point x="368" y="84"/>
      <point x="490" y="224" type="curve"/>
      <point x="830" y="616" type="line"/>
      <point x="954" y="760"/>
      <point x="1054" y="874"/>
      <point x="1170" y="1008" type="curve"/>
      <point x="1012" y="1136" type="line"/>
      <point x="898" y="1004"/>
      <point x="796" y="888"/>
      <point x="672" y="744" type="curve"/>
      <point x="340" y="362" type="line"/>
      <point x="218" y="222"/>
      <point x="124" y="114"/>
      <point x="2" y="-26" type="curve"/>
    </contour>
  </outline>
</glyph>
<glyph name="thorn" format="2">
  <advance width="1186"/>
  <unicode hex="00FE"/>
  <outline>
    <contour>
      <point x="-120" y="-396" type="curve"/>
      <point x="326" y="-384" type="line"/>
      <point x="356" y="-246"/>
      <point x="380" y="-126"/>
      <point x="410" y="16" type="curve"/>
      <point x="426" y="90" type="line"/>
      <point x="448" y="90" type="line"/>
      <point x="490" y="8"/>
      <point x="594" y="-32"/>
      <point x="696" y="-32" type="curve" smooth="yes"/>
      <point x="928" y="-32"/>
      <point x="1080" y="182"/>
      <point x="1140" y="464" type="curve" smooth="yes"/>
      <point x="1204" y="768"/>
      <point x="1120" y="1036"/>
      <point x="874" y="1036" type="curve" smooth="yes"/>
      <point x="778" y="1036"/>
      <point x="694" y="992"/>
      <point x="626" y="894" type="curve"/>
      <point x="598" y="894" type="line"/>
      <point x="616" y="986" type="line"/>
      <point x="656" y="1178"/>
      <point x="692" y="1346"/>
      <point x="724" y="1500" type="curve"/>
      <point x="274" y="1468" type="line"/>
      <point x="238" y="1298"/>
      <point x="206" y="1144"/>
      <point x="172" y="986" type="curve"/>
      <point x="-28" y="42" type="line"/>
      <point x="-64" y="-126"/>
      <point x="-90" y="-258"/>
    </contour>
    <contour>
      <point x="558" y="344" type="curve"/>
      <point x="528" y="344"/>
      <point x="502" y="360"/>
      <point x="490" y="380" type="curve"/>
      <point x="538" y="610" type="line"/>
      <point x="556" y="644"/>
      <point x="586" y="666"/>
      <point x="622" y="666" type="curve"/>
      <point x="688" y="666"/>
      <point x="708" y="574"/>
      <point x="692" y="496" type="curve" smooth="yes"/>
      <point x="674" y="410"/>
      <point x="626" y="344"/>
    </contour>
  </outline>
</glyph>
<glyph name="eng" format="2">
  <advance width="1168"/>
  <unicode hex="014B"/>
  <outline>
    <contour>
      <point x="348" y="-396" type="curve"/>
      <point x="782" y="-384" type="line"/>
      <point x="902" y="-300"/>
      <point x="968" y="-158"/>
      <point x="1008" y="32" type="curve" smooth="yes"/>
      <point x="1044" y="202"/>
      <point x="1078" y="360"/>
      <point x="1114" y="526" type="curve"/>
      <point x="1124" y="570"/>
      <point x="1134" y="620"/>
      <point x="1140" y="652" type="curve" smooth="yes"/>
      <point x="1188" y="880"/>
      <point x="1104" y="1036"/>
      <point x="894" y="1036" type="curve" smooth="yes"/>
      <point x="772" y="1036"/>
      <point x="648" y="982"/>
      <point x="568" y="862" type="curve"/>
      <point x="534" y="862" type="line"/>
      <point x="544" y="1024" type="line"/>
      <point x="176" y="1004" type="line"/>
      <point x="140" y="838"/>
      <point x="108" y="684"/>
      <point x="76" y="526" type="curve"/>
      <point x="54" y="426" type="line"/>
      <point x="18" y="258"/>
      <point x="-6" y="138"/>
      <point x="-36" y="0" type="curve"/>
      <point x="408" y="0" type="line"/>
      <point x="438" y="138"/>
      <point x="462" y="258"/>
      <point x="492" y="400" type="curve"/>
      <point x="530" y="582" type="line"/>
      <point x="560" y="616"/>
      <point x="588" y="636"/>
      <point x="624" y="636" type="curve" smooth="yes"/>
      <point x="674" y="636"/>
      <point x="678" y="578"/>
      <point x="664" y="510" type="curve"/>
      <point x="648" y="426" type="line"/>
      <point x="572" y="66" type="line"/>
      <point x="536" y="-118"/>
      <point x="466" y="-266"/>
    </contour>
  </outline>
</glyph>
<glyph name="oe" format="2">
  <advance width="1760"/>
  <unicode hex="0153"/>
  <anchor x="828" y="0" name="bottom"/>
  <anchor x="1040" y="1004" name="top"/>
  <outline>
    <contour>
      <point x="548" y="-32" type="curve" smooth="yes"/>
      <point x="850" y="-32"/>
      <point x="1048" y="148"/>
      <point x="1112" y="448" type="curve" smooth="yes"/>
      <point x="1174" y="748"/>
      <point x="1000" y="1036"/>
      <point x="628" y="1036" type="curve" smooth="yes"/>
      <point x="300" y="1036"/>
      <point x="108" y="858"/>
      <point x="44" y="558" type="curve" smooth="yes"/>
      <point x="-16" y="258"/>
      <point x="142" y="-32"/>
    </contour>
    <contour>
      <point x="570" y="322" type="curve"/>
      <point x="498" y="322"/>
      <point x="470" y="414"/>
      <point x="492" y="518" type="curve" smooth="yes"/>
      <point x="512" y="616"/>
      <point x="562" y="682"/>
      <point x="632" y="682" type="curve"/>
      <point x="710" y="682"/>
      <point x="724" y="582"/>
      <point x="704" y="486" type="curve" smooth="yes"/>
      <point x="686" y="396"/>
      <point x="640" y="322"/>
    </contour>
    <contour>
      <point x="1282" y="-32" type="curve" smooth="yes"/>
      <point x="1436" y="-32"/>
      <point x="1552" y="-2"/>
      <point x="1608" y="30" type="curve"/>
      <point x="1666" y="392" type="line"/>
      <point x="1580" y="346"/>
      <point x="1458" y="326"/>
      <point x="1386" y="326" type="curve" smooth="yes"/>
      <point x="1234" y="326"/>
      <point x="1134" y="362"/>
      <point x="1160" y="504" type="curve"/>
      <point x="1176" y="580" type="line"/>
      <point x="1206" y="714"/>
      <point x="1260" y="754"/>
      <point x="1312" y="754" type="curve"/>
      <point x="1366" y="754"/>
      <point x="1382" y="676"/>
      <point x="1360" y="598" type="curve" smooth="yes"/>
      <point x="1356" y="584"/>
      <point x="1350" y="564"/>
      <point x="1344" y="546" type="curve"/>
      <point x="1696" y="436" type="line"/>
      <point x="1710" y="474"/>
      <point x="1720" y="510"/>
      <point x="1732" y="562" type="curve" smooth="yes"/>
      <point x="1802" y="868"/>
      <point x="1646" y="1036"/>
      <point x="1302" y="1036" type="curve" smooth="yes"/>
      <point x="1000" y="1036"/>
      <point x="812" y="840"/>
      <point x="754" y="548" type="curve" smooth="yes"/>
      <point x="682" y="184"/>
      <point x="896" y="-32"/>
    </contour>
    <contour>
      <point x="896" y="436" type="line"/>
      <point x="1696" y="436" type="line"/>
      <point x="1730" y="596" type="line"/>
      <point x="1480" y="620" type="line"/>
      <point x="930" y="600" type="line"/>
    </contour>
  </outline>
</glyph>
<glyph name="tbar" format="2">
  <advance width="872"/>
  <unicode hex="0167"/>
  <outline>
    <contour>
      <point x="32" y="368" type="line"/>
      <point x="148" y="368"/>
      <point x="260" y="368"/>
      <point x="358" y="368" type="curve"/>
      <point x="446" y="368" type="line"/>
      <point x="544" y="368"/>
      <point x="656" y="368"/>
      <point x="772" y="368" type="curve"/>
      <point x="826" y="630" type="line"/>
      <point x="710" y="630"/>
      <point x="598" y="630"/>
      <point x="500" y="630" type="curve"/>
      <point x="412" y="630" type="line"/>
      <point x="314" y="630"/>
      <point x="202" y="630"/>
      <point x="86" y="630" type="curve"/>
    </contour>
    <contour>
      <point x="494" y="-32" type="curve" smooth="yes"/>
      <point x="568" y="-32"/>
      <point x="684" y="-16"/>
      <point x="732" y="14" type="curve"/>
      <point x="776" y="324" type="line"/>
      <point x="724" y="290"/>
      <point x="678" y="284"/>
      <point x="644" y="284" type="curve" smooth="yes"/>
      <point x="572" y="284"/>
      <point x="562" y="346"/>
      <point x="580" y="436" type="curve" smooth="yes"/>
      <point x="676" y="900" type="line"/>
      <point x="720" y="1100"/>
      <point x="746" y="1238"/>
      <point x="782" y="1402" type="curve"/>
      <point x="328" y="1330" type="line"/>
      <point x="300" y="1192"/>
      <point x="272" y="1068"/>
      <point x="238" y="900" type="curve"/>
      <point x="168" y="570"/>
      <point x="148" y="472"/>
      <point x="124" y="362" type="curve" smooth="yes"/>
      <point x="66" y="82"/>
      <point x="232" y="-32"/>
    </contour>
    <contour>
      <point x="60" y="678" type="line"/>
      <point x="326" y="678" type="line"/>
      <point x="530" y="678" type="line"/>
      <point x="636" y="678"/>
      <point x="754" y="678"/>
      <point x="870" y="678" type="curve"/>
      <point x="940" y="1004" type="line"/>
      <point x="130" y="1004" type="line"/>
    </contour>
  </outline>
</glyph>
<glyph name="jdotless" format="2">
  <advance width="604"/>
  <unicode hex="0237"/>
  <anchor x="138" y="-384" name="bottom"/>
  <anchor x="414" y="1004" name="top"/>
  <outline>
    <contour>
      <point x="-236" y="-396" type="curve"/>
      <point x="198" y="-384" type="line"/>
      <point x="318" y="-300"/>
      <point x="384" y="-158"/>
      <point x="424" y="32" type="curve" smooth="yes"/>
      <point x="460" y="202"/>
      <point x="494" y="360"/>
      <point x="530" y="526" type="curve"/>
      <point x="576" y="746"/>
      <point x="602" y="866"/>
      <point x="630" y="1004" type="curve"/>
      <point x="186" y="1004" type="line"/>
      <point x="158" y="866"/>
      <point x="132" y="746"/>
      <point x="86" y="526" type="curve"/>
      <point x="64" y="426" type="line"/>
      <point x="-12" y="66" type="line"/>
      <point x="-48" y="-118"/>
      <point x="-118" y="-266"/>
    </contour>
  </outline>
</glyph>
<glyph name="verticallinemod" format="2">
  <advance width="460"/>
  <unicode hex="02C8"/>
  <outline>
    <contour>
      <point x="166" y="1004" type="curve"/>
      <point x="506" y="1004" type="line"/>
      <point x="548" y="1196"/>
      <point x="586" y="1374"/>
      <point x="624" y="1558" type="curve"/>
      <point x="284" y="1558" type="line"/>
      <point x="246" y="1374"/>
      <point x="208" y="1196"/>
    </contour>
  </outline>
</glyph>
<glyph name="dieresiscomb" format="2">
  <unicode hex="0308"/>
  <anchor x="704" y="1004" name="_top"/>
  <anchor x="788" y="1420" name="top"/>
  <outline>
    <contour>
      <point x="980" y="1076" type="curve" smooth="yes"/>
      <point x="1094" y="1076"/>
      <point x="1182" y="1110"/>
      <point x="1212" y="1256" type="curve" smooth="yes"/>
      <point x="1238" y="1380"/>
      <point x="1168" y="1486"/>
      <point x="1036" y="1486" type="curve" smooth="yes"/>
      <point x="914" y="1486"/>
      <point x="826" y="1430"/>
      <point x="800" y="1300" type="curve" smooth="yes"/>
      <point x="772" y="1158"/>
      <point x="856" y="1076"/>
    </contour>
    <contour>
      <point x="492" y="1076" type="curve" smooth="yes"/>
      <point x="606" y="1076"/>
      <point x="694" y="1110"/>
      <point x="724" y="1256" type="curve" smooth="yes"/>
      <point x="748" y="1380"/>
      <point x="680" y="1486"/>
      <point x="548" y="1486" type="curve" smooth="yes"/>
      <point x="426" y="1486"/>
      <point x="338" y="1430"/>
      <point x="312" y="1300" type="curve" smooth="yes"/>
      <point x="282" y="1158"/>
      <point x="368" y="1076"/>
    </contour>
  </outline>
</glyph>
<glyph name="hookabovecomb" format="2">
  <unicode hex="0309"/>
  <anchor x="706" y="1004" name="_top"/>
  <anchor x="836" y="1626" name="top"/>
  <outline>
    <contour>
      <point x="566" y="1108" type="line"/>
      <point x="806" y="1108" type="line"/>
      <point x="810" y="1132" type="line"/>
      <point x="992" y="1166"/>
      <point x="1110" y="1242"/>
      <point x="1138" y="1378" type="curve" smooth="yes"/>
      <point x="1174" y="1556"/>
      <point x="988" y="1626"/>
      <point x="820" y="1626" type="curve" smooth="yes"/>
      <point x="706" y="1626"/>
      <point x="580" y="1594"/>
      <point x="518" y="1570" type="curve"/>
      <point x="480" y="1320" type="line"/>
      <point x="570" y="1356"/>
      <point x="674" y="1386"/>
      <point x="730" y="1386" type="curve"/>
      <point x="774" y="1386"/>
      <point x="800" y="1360"/>
      <point x="794" y="1330" type="curve" smooth="yes"/>
      <point x="784" y="1282"/>
      <point x="692" y="1248"/>
      <point x="588" y="1216" type="curve"/>
    </contour>
  </outline>
</glyph>
<glyph name="macronbelowcomb" format="2">
  <unicode hex="0331"/>
  <anchor x="494" y="0" name="_bottom"/>
  <anchor x="494" y="0" name="bottom"/>
  <outline>
    <contour>
      <point x="34" y="-422" type="line"/>
      <point x="146" y="-422"/>
      <point x="270" y="-422"/>
      <point x="406" y="-422" type="curve"/>
      <point x="542" y="-422"/>
      <point x="666" y="-422"/>
      <point x="778" y="-422" type="curve"/>
      <point x="846" y="-102" type="line"/>
      <point x="734" y="-102"/>
      <point x="610" y="-102"/>
      <point x="474" y="-102" type="curve"/>
      <point x="338" y="-102"/>
      <point x="214" y="-102"/>
      <point x="102" y="-102" type="curve"/>
    </contour>
  </outline>
</glyph>
<glyph name="endash" format="2">
  <advance width="1280"/>
  <unicode hex="2013"/>
  <outline>
    <contour>
      <point x="62" y="418" type="line"/>
      <point x="212" y="418"/>
      <point x="354" y="418"/>
      <point x="478" y="418" type="curve"/>
      <point x="766" y="418" type="line"/>
      <point x="890" y="418"/>
      <point x="1032" y="418"/>
      <point x="1182" y="418" type="curve"/>
      <point x="1262" y="798" type="line"/>
      <point x="1112" y="798"/>
      <point x="970" y="798"/>
      <point x="846" y="798" type="curve"/>
      <point x="558" y="798" type="line"/>
      <point x="434" y="798"/>
      <point x="292" y="798"/>
      <point x="142" y="798" type="curve"/>
    </contour>
  </outline>
</glyph>
<glyph name="bullet" format="2">
  <advance width="900"/>
  <unicode hex="2022"/>
  <outline>
    <contour>
      <point x="446" y="238" type="curve" smooth="yes"/>
      <point x="674" y="238"/>
      <point x="790" y="356"/>
      <point x="832" y="556" type="curve" smooth="yes"/>
      <point x="878" y="772"/>
      <point x="746" y="978"/>
      <point x="506" y="978" type="curve" smooth="yes"/>
      <point x="272" y="978"/>
      <point x="154" y="858"/>
      <point x="114" y="660" type="curve" smooth="yes"/>
      <point x="70" y="446"/>
      <point x="188" y="238"/>
    </contour>
  </outline>
</glyph>
<glyph name="guilsinglleft" format="2">
  <advance width="842"/>
  <unicode hex="2039"/>
  <outline>
    <contour>
      <point x="264" y="-4" type="curve"/>
      <point x="680" y="18" type="line"/>
      <point x="614" y="176"/>
      <point x="546" y="334"/>
      <point x="480" y="492" type="curve"/>
      <point x="486" y="524" type="line"/>
      <point x="620" y="684"/>
      <point x="754" y="846"/>
      <point x="888" y="1006" type="curve"/>
      <point x="448" y="1032" type="line"/>
      <point x="310" y="860"/>
      <point x="170" y="686"/>
      <point x="32" y="514" type="curve"/>
      <point x="110" y="342"/>
      <point x="186" y="168"/>
    </contour>
  </outline>
</glyph>
<glyph name="colonsign" format="2">
  <advance width="1304"/>
  <unicode hex="20A1"/>
  <outline>
    <contour>
      <point x="732" y="-30" type="curve" smooth="yes"/>
      <point x="854" y="-30"/>
      <point x="1020" y="-10"/>
      <point x="1124" y="32" type="curve"/>
      <point x="1196" y="474" type="line"/>
      <point x="1058" y="390"/>
      <point x="926" y="348"/>
      <point x="828" y="348" type="curve"/>
      <point x="608" y="348"/>
      <point x="540" y="530"/>
      <point x="578" y="716" type="curve" smooth="yes"/>
      <point x="624" y="936"/>
      <point x="764" y="1020"/>
      <point x="906" y="1020" type="curve"/>
      <point x="1030" y="1020"/>
      <point x="1144" y="968"/>
      <point x="1272" y="884" type="curve"/>
      <point x="1396" y="1304" type="line"/>
      <point x="1270" y="1370"/>
      <point x="1072" y="1412"/>
      <point x="914" y="1412" type="curve" smooth="yes"/>
      <point x="444" y="1412"/>
      <point x="188" y="1182"/>
      <point x="104" y="774" type="curve" smooth="yes"/>
      <point x="12" y="334"/>
      <point x="240" y="-30"/>
    </contour>
    <contour>
      <point x="114" y="-274" type="curve"/>
      <point x="396" y="-274" type="line"/>
      <point x="468" y="-80"/>
      <point x="536" y="100"/>
      <point x="602" y="278" type="curve"/>
      <point x="320" y="278" type="line"/>
      <point x="254" y="100"/>
      <point x="186" y="-80"/>
    </contour>
    <contour>
      <point x="480" y="-274" type="curve"/>
      <point x="762" y="-274" type="line"/>
      <point x="822" y="-112"/>
      <point x="878" y="38"/>
      <point x="934" y="186" type="curve"/>
      <point x="652" y="186" type="line"/>
      <point x="596" y="38"/>
      <point x="540" y="-114"/>
    </contour>
    <contour>
      <point x="608" y="1208" type="curve"/>
      <point x="892" y="1208" type="line"/>
      <point x="940" y="1338"/>
      <point x="988" y="1466"/>
      <point x="1040" y="1606" type="curve"/>
      <point x="758" y="1606" type="line"/>
      <point x="706" y="1466"/>
      <point x="656" y="1336"/>
    </contour>
    <contour>
      <point x="942" y="1120" type="curve"/>
      <point x="1224" y="1120" type="line"/>
      <point x="1284" y="1280"/>
      <point x="1342" y="1436"/>
      <point x="1406" y="1606" type="curve"/>
      <point x="1124" y="1606" type="line"/>
      <point x="1060" y="1436"/>
      <point x="1000" y="1276"/>
    </contour>
  </outline>
</glyph>
<glyph name="dong" format="2">
  <advance width="1156"/>
  <unicode hex="20AB"/>
  <outline>
    <contour>
      <point x="360" y="266" type="curve" smooth="yes"/>
      <point x="448" y="266"/>
      <point x="532" y="304"/>
      <point x="600" y="392" type="curve"/>
      <point x="622" y="392" type="line"/>
      <point x="620" y="292" type="line"/>
      <point x="924" y="292" type="line"/>
      <point x="946" y="398"/>
      <point x="968" y="500"/>
      <point x="996" y="634" type="curve"/>
      <point x="1090" y="1078" type="line"/>
      <point x="1124" y="1238"/>
      <point x="1152" y="1368"/>
      <point x="1178" y="1492" type="curve"/>
      <point x="808" y="1466" type="line"/>
      <point x="780" y="1332"/>
      <point x="754" y="1210"/>
      <point x="726" y="1080" type="curve"/>
      <point x="714" y="1022" type="line"/>
      <point x="688" y="1022" type="line"/>
      <point x="654" y="1090"/>
      <point x="572" y="1122"/>
      <point x="488" y="1122" type="curve" smooth="yes"/>
      <point x="294" y="1122"/>
      <point x="166" y="950"/>
      <point x="118" y="724" type="curve" smooth="yes"/>
      <point x="66" y="476"/>
      <point x="144" y="266"/>
    </contour>
    <contour>
      <point x="-34" y="0" type="line"/>
      <point x="116" y="0"/>
      <point x="258" y="0"/>
      <point x="382" y="0" type="curve"/>
      <point x="470" y="0" type="line"/>
      <point x="594" y="0"/>
      <point x="736" y="0"/>
      <point x="886" y="0" type="curve"/>
      <point x="932" y="200" type="line"/>
      <point x="782" y="200"/>
      <point x="640" y="200"/>
      <point x="516" y="200" type="curve"/>
      <point x="428" y="200" type="line"/>
      <point x="304" y="200"/>
      <point x="162" y="200"/>
      <point x="12" y="200" type="curve"/>
    </contour>
    <contour>
      <point x="552" y="568" type="curve"/>
      <point x="488" y="568"/>
      <point x="472" y="646"/>
      <point x="484" y="694" type="curve" smooth="yes"/>
      <point x="502" y="764"/>
      <point x="542" y="814"/>
      <point x="604" y="814" type="curve"/>
      <point x="632" y="814"/>
      <point x="654" y="802"/>
      <point x="666" y="788" type="curve"/>
      <point x="628" y="610" type="line"/>
      <point x="612" y="586"/>
      <point x="584" y="568"/>
    </contour>
    <contour>
      <point x="486" y="1192" type="line"/>
      <point x="622" y="1192"/>
      <point x="752" y="1192"/>
      <point x="864" y="1192" type="curve"/>
      <point x="894" y="1192" type="line"/>
      <point x="1006" y="1192"/>
      <point x="1136" y="1192"/>
      <point x="1272" y="1192" type="curve"/>
      <point x="1310" y="1372" type="line"/>
      <point x="1174" y="1372"/>
      <point x="1044" y="1372"/>
      <point x="932" y="1372" type="curve"/>
      <point x="902" y="1372" type="line"/>
      <point x="790" y="1372"/>
      <point x="660" y="1372"/>
      <point x="524" y="1372" type="curve"/>
    </contour>
  </outline>
</glyph>
<glyph name="rupeeIndian" format="2">
  <advance width="1290"/>
  <unicode hex="20B9"/>
  <outline>
    <contour>
      <point x="614" y="448" type="curve"/>
      <point x="876" y="448"/>
      <point x="1000" y="576"/>
      <point x="1038" y="748" type="curve" smooth="yes"/>
      <point x="1070" y="900"/>
      <point x="1032" y="1006"/>
      <point x="940" y="1048" type="curve"/>
      <point x="946" y="1080" type="line"/>
      <point x="1024" y="1080" type="line"/>
      <point x="1118" y="1080"/>
      <point x="1228" y="1080"/>
      <point x="1342" y="1080" type="curve"/>
      <point x="1406" y="1380" type="line"/>
      <point x="286" y="1380" type="line"/>
      <point x="222" y="1080" type="line"/>
      <point x="294" y="1080"/>
      <point x="366" y="1080"/>
      <point x="436" y="1080" type="curve"/>
      <point x="594" y="1080"/>
      <point x="624" y="984"/>
      <point x="596" y="848" type="curve" smooth="yes"/>
      <point x="556" y="664"/>
      <point x="478" y="650"/>
      <point x="376" y="650" type="curve"/>
      <point x="294" y="650"/>
      <point x="214" y="650"/>
      <point x="132" y="650" type="curve"/>
      <point x="94" y="470" type="line"/>
      <point x="266" y="470" type="line"/>
      <point x="448" y="448" type="line"/>
      <point x="504" y="448"/>
      <point x="558" y="448"/>
    </contour>
    <contour>
      <point x="490" y="0" type="curve"/>
      <point x="1080" y="0" type="line"/>
      <point x="986" y="106"/>
      <point x="856" y="252"/>
      <point x="756" y="364" type="curve"/>
      <point x="522" y="626" type="line"/>
      <point x="94" y="470" type="line"/>
      <point x="278" y="252" type="line"/>
      <point x="340" y="178"/>
      <point x="416" y="88"/>
    </contour>
    <contour>
      <point x="158" y="774" type="line"/>
      <point x="308" y="774"/>
      <point x="458" y="774"/>
      <point x="574" y="774" type="curve"/>
      <point x="862" y="774" type="line"/>
      <point x="986" y="774"/>
      <point x="1128" y="774"/>
      <point x="1278" y="774" type="curve"/>
      <point x="1316" y="954" type="line"/>
      <point x="1166" y="954"/>
      <point x="1024" y="954"/>
      <point x="900" y="954" type="curve"/>
      <point x="612" y="954" type="line"/>
      <point x="496" y="954"/>
      <point x="346" y="954"/>
      <point x="196" y="954" type="curve"/>
    </contour>
  </outline>
</glyph>
<glyph name="Ohm" format="2">
  <advance width="1576"/>
  <unicode hex="2126"/>
  <outline>
    <contour>
      <point x="-46" y="0" type="line"/>
      <point x="622" y="0" type="line"/>
      <point x="660" y="180"/>
      <point x="692" y="330"/>
      <point x="738" y="548" type="curve"/>
      <point x="694" y="592"/>
      <point x="616" y="708"/>
      <point x="644" y="836" type="curve" smooth="yes"/>
      <point x="674" y="978"/>
      <point x="766" y="1056"/>
      <point x="886" y="1056" type="curve"/>
      <point x="1008" y="1056"/>
      <point x="1092" y="938"/>
      <point x="1060" y="796" type="curve" smooth="yes"/>
      <point x="1026" y="642"/>
      <point x="928" y="580"/>
      <point x="858" y="548" type="curve"/>
      <point x="812" y="330"/>
      <point x="780" y="180"/>
      <point x="742" y="0" type="curve"/>
      <point x="1410" y="0" type="line"/>
      <point x="1492" y="384" type="line"/>
      <point x="1396" y="384"/>
      <point x="1312" y="384"/>
      <point x="1168" y="384" type="curve"/>
      <point x="1036" y="384" type="line"/>
      <point x="1196" y="198" type="line"/>
      <point x="1220" y="310"/>
      <point x="1240" y="406"/>
      <point x="1268" y="538" type="curve"/>
      <point x="936" y="392" type="line"/>
      <point x="1310" y="412"/>
      <point x="1518" y="532"/>
      <point x="1580" y="828" type="curve" smooth="yes"/>
      <point x="1644" y="1140"/>
      <point x="1412" y="1450"/>
      <point x="906" y="1450" type="curve" smooth="yes"/>
      <point x="460" y="1450"/>
      <point x="220" y="1254"/>
      <point x="158" y="954" type="curve" smooth="yes"/>
      <point x="108" y="712"/>
      <point x="210" y="464"/>
      <point x="592" y="392" type="curve"/>
      <point x="324" y="538" type="line"/>
      <point x="296" y="406"/>
      <point x="276" y="310"/>
      <point x="252" y="198" type="curve"/>
      <point x="492" y="384" type="line"/>
      <point x="360" y="384" type="line"/>
      <point x="216" y="384"/>
      <point x="132" y="384"/>
      <point x="36" y="384" type="curve"/>
    </contour>
  </outline>
</glyph>
<glyph name="partialdiff" format="2">
  <advance width="1196"/>
  <unicode hex="2202"/>
  <outline>
    <contour>
      <point x="554" y="-32" type="curve" smooth="yes"/>
      <point x="924" y="-32"/>
      <point x="1096" y="190"/>
      <point x="1176" y="578" type="curve" smooth="yes"/>
      <point x="1294" y="1142"/>
      <point x="1044" y="1412"/>
      <point x="670" y="1412" type="curve" smooth="yes"/>
      <point x="534" y="1412"/>
      <point x="412" y="1384"/>
      <point x="278" y="1344" type="curve"/>
      <point x="228" y="940" type="line"/>
      <point x="352" y="998"/>
      <point x="474" y="1032"/>
      <point x="582" y="1032" type="curve"/>
      <point x="764" y="1032"/>
      <point x="792" y="902"/>
      <point x="744" y="650" type="curve" smooth="yes"/>
      <point x="694" y="398"/>
      <point x="636" y="322"/>
      <point x="566" y="322" type="curve"/>
      <point x="492" y="322"/>
      <point x="466" y="404"/>
      <point x="480" y="468" type="curve" smooth="yes"/>
      <point x="494" y="532"/>
      <point x="546" y="588"/>
      <point x="620" y="588" type="curve"/>
      <point x="646" y="588"/>
      <point x="708" y="572"/>
      <point x="740" y="506" type="curve"/>
      <point x="854" y="612"/>
      <point x="850" y="742"/>
      <point x="788" y="846" type="curve"/>
      <point x="740" y="812" type="line"/>
      <point x="688" y="848"/>
      <point x="596" y="874"/>
      <point x="476" y="874" type="curve" smooth="yes"/>
      <point x="280" y="874"/>
      <point x="98" y="800"/>
      <point x="40" y="528" type="curve" smooth="yes"/>
      <point x="-34" y="178"/>
      <point x="208" y="-32"/>
    </contour>
  </outline>
</glyph>
<glyph name="lozenge" format="2">
  <advance width="1316"/>
  <unicode hex="25CA"/>
  <outline>
    <contour>
      <point x="428" y="0" type="curve"/>
      <point x="940" y="0" type="line"/>
      <point x="1050" y="208"/>
      <point x="1162" y="418"/>
      <point x="1272" y="626" type="curve"/>
      <point x="1162" y="834"/>
      <point x="1050" y="1044"/>
      <point x="940" y="1252" type="curve"/>
      <point x="428" y="1252" type="line"/>
      <point x="318" y="1044"/>
      <point x="206" y="834"/>
      <point x="96" y="626" type="curve"/>
      <point x="206" y="418"/>
      <point x="318" y="208"/>
    </contour>
    <contour>
      <point x="670" y="306" type="line"/>
      <point x="618" y="412"/>
      <point x="566" y="520"/>
      <point x="514" y="626" type="curve"/>
      <point x="566" y="732"/>
      <point x="618" y="840"/>
      <point x="670" y="946" type="curve"/>
      <point x="698" y="946" type="line"/>
      <point x="750" y="840"/>
      <point x="802" y="732"/>
      <point x="854" y="626" type="curve"/>
      <point x="802" y="520"/>
      <point x="750" y="412"/>
      <point x="698" y="306" type="curve"/>
    </contour>
  </outline>
</glyph>
<glyph name="H.bar" format="2">
  <advance width="1502"/>
  <anchor x="646" y="0" name="bottom"/>
  <anchor x="796" y="714" name="center"/>
  <anchor x="946" y="1426" name="top"/>
  <anchor x="270" y="1426" name="topleft"/>
  <outline>
    <contour>
      <point x="810" y="0" type="curve"/>
      <point x="1304" y="0" type="line"/>
      <point x="1336" y="148"/>
      <point x="1362" y="272"/>
      <point x="1402" y="458" type="curve"/>
      <point x="1506" y="948" type="line"/>
      <point x="1546" y="1138"/>
      <point x="1574" y="1270"/>
      <point x="1608" y="1426" type="curve"/>
      <point x="1114" y="1426" type="line"/>
      <point x="1080" y="1270"/>
      <point x="1052" y="1138"/>
      <point x="1012" y="948" type="curve"/>
      <point x="908" y="458" type="line"/>
      <point x="868" y="272"/>
      <point x="842" y="148"/>
    </contour>
    <contour>
      <point x="-16" y="0" type="curve"/>
      <point x="478" y="0" type="line"/>
      <point x="510" y="148"/>
      <point x="536" y="272"/>
      <point x="576" y="458" type="curve"/>
      <point x="680" y="948" type="line"/>
      <point x="720" y="1138"/>
      <point x="748" y="1270"/>
      <point x="782" y="1426" type="curve"/>
      <point x="288" y="1426" type="line"/>
      <point x="254" y="1270"/>
      <point x="226" y="1138"/>
      <point x="186" y="948" type="curve"/>
      <point x="82" y="458" type="line"/>
      <point x="42" y="272"/>
      <point x="16" y="148"/>
    </contour>
    <contour>
      <point x="456" y="462" type="line"/>
      <point x="1036" y="462" type="line"/>
      <point x="1116" y="846" type="line"/>
      <point x="536" y="846" type="line"/>
    </contour>
  </outline>
</glyph>
<glyph name="_exclam" format="2">
  <advance width="590"/>
  <outline>
    <contour>
      <point x="132" y="566" type="curve"/>
      <point x="490" y="570" type="line"/>
      <point x="572" y="876"/>
      <point x="654" y="1178"/>
      <point x="736" y="1478" type="curve"/>
      <point x="266" y="1466" type="line"/>
      <point x="222" y="1172"/>
      <point x="178" y="870"/>
    </contour>
  </outline>
</glyph>
<glyph name="_slash.Lslash" format="2">
  <advance width="1214"/>
  <anchor x="628" y="714" name="_center"/>
  <outline>
    <contour>
      <point x="42" y="448" type="line"/>
      <point x="198" y="490"/>
      <point x="348" y="530"/>
      <point x="474" y="564" type="curve"/>
      <point x="588" y="594" type="line"/>
      <point x="714" y="628"/>
      <point x="864" y="668"/>
      <point x="1020" y="710" type="curve"/>
      <point x="992" y="1048" type="line"/>
      <point x="838" y="1006"/>
      <point x="690" y="966"/>
      <point x="562" y="932" type="curve"/>
      <point x="444" y="900" type="line"/>
      <point x="316" y="866"/>
      <point x="172" y="826"/>
      <point x="14" y="784" type="curve"/>
    </contour>
  </outline>
</glyph>
<glyph name="_strokeshortcomb.Eth" format="2">
  <advance width="1460"/>
  <anchor x="775" y="714" name="_center"/>
  <outline>
    <contour>
      <point x="-22" y="552" type="line"/>
      <point x="104" y="552"/>
      <point x="224" y="552"/>
      <point x="330" y="552" type="curve"/>
      <point x="426" y="552" type="line"/>
      <point x="532" y="552"/>
      <point x="652" y="552"/>
      <point x="778" y="552" type="curve"/>
      <point x="846" y="874" type="line"/>
      <point x="720" y="874"/>
      <point x="600" y="874"/>
      <point x="494" y="874" type="curve"/>
      <point x="398" y="874" type="line"/>
      <point x="292" y="874"/>
      <point x="172" y="874"/>
      <point x="46" y="874" type="curve"/>
    </contour>
  </outline>
</glyph>
<glyph name="brevecomb_tildecomb" format="2">
  <anchor x="702" y="1004" name="_top"/>
  <outline>
    <contour>
      <point x="760" y="1076" type="curve" smooth="yes"/>
      <point x="1048" y="1076"/>
      <point x="1166" y="1196"/>
      <point x="1222" y="1484" type="curve"/>
      <point x="938" y="1484" type="line"/>
      <point x="928" y="1402"/>
      <point x="882" y="1336"/>
      <point x="780" y="1336" type="curve"/>
      <point x="678" y="1336"/>
      <point x="648" y="1394"/>
      <point x="666" y="1496" type="curve"/>
      <point x="376" y="1484" type="line"/>
      <point x="322" y="1206"/>
      <point x="476" y="1076"/>
    </contour>
    <contour>
      <point x="998" y="1540" type="curve" smooth="yes"/>
      <point x="1130" y="1540"/>
      <point x="1234" y="1664"/>
      <point x="1274" y="1884" type="curve"/>
      <point x="1076" y="1884" type="line"/>
      <point x="1068" y="1856"/>
      <point x="1038" y="1804"/>
      <point x="1000" y="1804" type="curve"/>
      <point x="944" y="1804"/>
      <point x="874" y="1922"/>
      <point x="720" y="1922" type="curve" smooth="yes"/>
      <point x="580" y="1922"/>
      <point x="468" y="1798"/>
      <point x="428" y="1578" type="curve"/>
      <point x="626" y="1578" type="line"/>
      <point x="638" y="1606"/>
      <point x="670" y="1658"/>
      <point x="712" y="1658" type="curve"/>
      <point x="760" y="1658"/>
      <point x="840" y="1540"/>
    </contour>
  </outline>
</glyph>
<glyph name="caroncomb.alt" format="2">
  <anchor x="706" y="1004" name="_topright"/>
  <outline>
    <contour>
      <point x="774" y="1094" type="curve"/>
      <point x="948" y="1098" type="line"/>
      <point x="1056" y="1162"/>
      <point x="1196" y="1270"/>
      <point x="1228" y="1424" type="curve" smooth="yes"/>
      <point x="1248" y="1520"/>
      <point x="1188" y="1592"/>
      <point x="1106" y="1608" type="curve"/>
      <point x="912" y="1590" type="line"/>
      <point x="898" y="1518"/>
      <point x="882" y="1442"/>
      <point x="866" y="1368" type="curve"/>
      <point x="846" y="1274"/>
      <point x="816" y="1182"/>
    </contour>
  </outline>
</glyph>
<glyph name="circumflexcomb.case" format="2">
  <anchor x="706" y="1004" name="_top"/>
  <anchor x="808" y="1490" name="top"/>
  <outline>
    <contour>
      <point x="872" y="1106" type="curve"/>
      <point x="1172" y="1110" type="line"/>
      <point x="1124" y="1242"/>
      <point x="1070" y="1374"/>
      <point x="1020" y="1508" type="curve"/>
      <point x="586" y="1508" type="line"/>
      <point x="684" y="1368"/>
      <point x="784" y="1234"/>
    </contour>
    <contour>
      <point x="284" y="1108" type="curve"/>
      <point x="600" y="1108" type="line"/>
      <point x="726" y="1234"/>
      <point x="864" y="1370"/>
      <point x="1004" y="1508" type="curve"/>
      <point x="576" y="1508" type="line"/>
      <point x="478" y="1374"/>
      <point x="384" y="1242"/>
    </contour>
  </outline>
</glyph>
<glyph name="circumflexcomb_acutecomb" format="2">
  <anchor x="706" y="1004" name="_top"/>
  <outline>
    <contour>
      <point x="1074" y="1428" type="curve"/>
      <point x="1370" y="1430" type="line"/>
      <point x="1478" y="1552"/>
      <point x="1598" y="1682"/>
      <point x="1716" y="1814" type="curve"/>
      <point x="1316" y="1806" type="line"/>
      <point x="1236" y="1680"/>
      <point x="1154" y="1554"/>
    </contour>
    <contour>
      <point x="314" y="1108" type="curve"/>
      <point x="608" y="1108" type="line"/>
      <point x="728" y="1240"/>
      <point x="860" y="1382"/>
      <point x="992" y="1528" type="curve"/>
      <point x="594" y="1528" type="line"/>
      <point x="500" y="1386"/>
      <point x="408" y="1250"/>
    </contour>
    <contour>
      <point x="862" y="1106" type="curve"/>
      <point x="1142" y="1110" type="line"/>
      <point x="1098" y="1250"/>
      <point x="1054" y="1388"/>
      <point x="1008" y="1528" type="curve"/>
      <point x="604" y="1528" type="line"/>
      <point x="692" y="1380"/>
      <point x="782" y="1240"/>
    </contour>
  </outline>
</glyph>
<glyph name="circumflexcomb_gravecomb" format="2">
  <anchor x="706" y="1004" name="_top"/>
  <outline>
    <contour>
      <point x="1136" y="1426" type="curve"/>
      <point x="1396" y="1428" type="line"/>
      <point x="1358" y="1560"/>
      <point x="1320" y="1688"/>
      <point x="1282" y="1812" type="curve"/>
      <point x="914" y="1804" type="line"/>
      <point x="990" y="1672"/>
      <point x="1068" y="1546"/>
    </contour>
    <contour>
      <point x="314" y="1108" type="curve"/>
      <point x="608" y="1108" type="line"/>
      <point x="728" y="1240"/>
      <point x="860" y="1382"/>
      <point x="992" y="1528" type="curve"/>
      <point x="594" y="1528" type="line"/>
      <point x="500" y="1386"/>
      <point x="408" y="1250"/>
    </contour>
    <contour>
      <point x="862" y="1106" type="curve"/>
      <point x="1142" y="1110" type="line"/>
      <point x="1098" y="1250"/>
      <point x="1054" y="1388"/>
      <point x="1008" y="1528" type="curve"/>
      <point x="604" y="1528" type="line"/>
      <point x="692" y="1380"/>
      <point x="782" y="1240"/>
    </contour>
  </outline>
</glyph>
<glyph name="circumflexcomb_hookabovecomb.case" format="2">
  <anchor x="706" y="1004" name="_top"/>
  <outline>
    <contour>
      <point x="314" y="1108" type="curve"/>
      <point x="608" y="1108" type="line"/>
      <point x="726" y="1228"/>
      <point x="854" y="1356"/>
      <point x="984" y="1490" type="curve"/>
      <point x="586" y="1490" type="line"/>
      <point x="494" y="1360"/>
      <point x="406" y="1236"/>
    </contour>
    <contour>
      <point x="862" y="1106" type="curve"/>
      <point x="1142" y="1110" type="line"/>
      <point x="1094" y="1236"/>
      <point x="1048" y="1362"/>
      <point x="1000" y="1490" type="curve"/>
      <point x="596" y="1490" type="line"/>
      <point x="686" y="1356"/>
      <point x="780" y="1228"/>
    </contour>
    <contour>
      <point x="1078" y="1394" type="line"/>
      <point x="1286" y="1394" type="line"/>
      <point x="1290" y="1414" type="line"/>
      <point x="1446" y="1424"/>
      <point x="1550" y="1490"/>
      <point x="1574" y="1608" type="curve" smooth="yes"/>
      <point x="1606" y="1764"/>
      <point x="1442" y="1824"/>
      <point x="1296" y="1824" type="curve" smooth="yes"/>
      <point x="1198" y="1824"/>
      <point x="1088" y="1796"/>
      <point x="1034" y="1776" type="curve"/>
      <point x="1002" y="1558" type="line"/>
      <point x="1080" y="1590"/>
      <point x="1170" y="1616"/>
      <point x="1218" y="1616" type="curve"/>
      <point x="1256" y="1616"/>
      <point x="1280" y="1592"/>
      <point x="1274" y="1566" type="curve" smooth="yes"/>
      <point x="1264" y="1526"/>
      <point x="1186" y="1496"/>
      <point x="1098" y="1488" type="curve"/>
    </contour>
  </outline>
</glyph>
<glyph name="dollar.BRACKET.140" format="2">
  <advance width="1176"/>
  <outline>
    <contour>
      <point x="524" y="-30" type="curve" smooth="yes"/>
      <point x="890" y="-30"/>
      <point x="1052" y="76"/>
      <point x="1110" y="358" type="curve" smooth="yes"/>
      <point x="1160" y="598"/>
      <point x="1080" y="724"/>
      <point x="796" y="826" type="curve" smooth="yes"/>
      <point x="616" y="890"/>
      <point x="556" y="930"/>
      <point x="566" y="972" type="curve" smooth="yes"/>
      <point x="574" y="1012"/>
      <point x="634" y="1030"/>
      <point x="720" y="1030" type="curve"/>
      <point x="832" y="1030"/>
      <point x="1006" y="990"/>
      <point x="1120" y="904" type="curve"/>
      <point x="1234" y="1274" type="line"/>
      <point x="1116" y="1346"/>
      <point x="892" y="1400"/>
      <point x="694" y="1400" type="curve" smooth="yes"/>
      <point x="366" y="1400"/>
      <point x="210" y="1280"/>
      <point x="156" y="1018" type="curve" smooth="yes"/>
      <point x="100" y="746"/>
      <point x="224" y="626"/>
      <point x="436" y="544" type="curve" smooth="yes"/>
      <point x="582" y="488"/>
      <point x="710" y="446"/>
      <point x="698" y="390" type="curve" smooth="yes"/>
      <point x="692" y="356"/>
      <point x="640" y="332"/>
      <point x="536" y="332" type="curve"/>
      <point x="370" y="332"/>
      <point x="216" y="386"/>
      <point x="94" y="470" type="curve"/>
      <point x="-16" y="84" type="line"/>
      <point x="82" y="20"/>
      <point x="322" y="-30"/>
    </contour>
    <contour>
      <point x="278" y="-274" type="curve"/>
      <point x="598" y="-274" type="line"/>
      <point x="648" y="-40"/>
      <point x="692" y="168"/>
      <point x="738" y="384" type="curve"/>
      <point x="858" y="948" type="line"/>
      <point x="904" y="1164"/>
      <point x="948" y="1372"/>
      <point x="998" y="1606" type="curve"/>
      <point x="678" y="1606" type="line"/>
      <point x="628" y="1372"/>
      <point x="584" y="1164"/>
      <point x="538" y="948" type="curve"/>
      <point x="418" y="384" type="line"/>
      <point x="372" y="168"/>
      <point x="328" y="-40"/>
    </contour>
  </outline>
</glyph>
<glyph name="f.calt" format="2">
  <advance width="850"/>
  <outline>
    <contour>
      <point x="58" y="0" type="curve"/>
      <point x="502" y="0" type="line"/>
      <point x="532" y="138"/>
      <point x="556" y="258"/>
      <point x="592" y="426" type="curve"/>
      <point x="700" y="940" type="line"/>
      <point x="694" y="1004" type="line"/>
      <point x="698" y="1020"/>
      <point x="702" y="1046"/>
      <point x="704" y="1056" type="curve" smooth="yes"/>
      <point x="714" y="1110"/>
      <point x="754" y="1138"/>
      <point x="800" y="1138" type="curve" smooth="yes"/>
      <point x="850" y="1138"/>
      <point x="906" y="1122"/>
      <point x="958" y="1098" type="curve"/>
      <point x="1032" y="1454" type="line"/>
      <point x="962" y="1478"/>
      <point x="854" y="1498"/>
      <point x="760" y="1498" type="curve" smooth="yes"/>
      <point x="548" y="1498"/>
      <point x="360" y="1414"/>
      <point x="292" y="1108" type="curve" smooth="yes"/>
      <point x="266" y="982"/>
      <point x="200" y="678"/>
      <point x="170" y="526" type="curve"/>
      <point x="148" y="426" type="line"/>
      <point x="112" y="258"/>
      <point x="88" y="138"/>
    </contour>
    <contour>
      <point x="60" y="678" type="line"/>
      <point x="326" y="678" type="line"/>
      <point x="530" y="678" type="line"/>
      <point x="636" y="678"/>
      <point x="734" y="678"/>
      <point x="850" y="678" type="curve"/>
      <point x="920" y="1004" type="line"/>
      <point x="130" y="1004" type="line"/>
    </contour>
  </outline>
</glyph>
<glyph name="peso.BRACKET.140" format="2">
  <advance width="1620"/>
  <outline>
    <contour>
      <point x="616" y="410" type="line"/>
      <point x="690" y="410"/>
      <point x="814" y="410"/>
      <point x="908" y="410" type="curve"/>
      <point x="1234" y="410"/>
      <point x="1398" y="556"/>
      <point x="1462" y="852" type="curve" smooth="yes"/>
      <point x="1544" y="1232"/>
      <point x="1372" y="1380"/>
      <point x="1022" y="1380" type="curve"/>
      <point x="752" y="1380"/>
      <point x="530" y="1380"/>
      <point x="420" y="1380" type="curve"/>
      <point x="774" y="1028" type="line"/>
      <point x="918" y="1028" type="line" smooth="yes"/>
      <point x="980" y="1028"/>
      <point x="1010" y="970"/>
      <point x="988" y="868" type="curve" smooth="yes"/>
      <point x="966" y="764"/>
      <point x="930" y="738"/>
      <point x="860" y="738" type="curve" smooth="yes"/>
      <point x="686" y="738" type="line"/>
    </contour>
    <contour>
      <point x="140" y="922" type="line"/>
      <point x="290" y="922"/>
      <point x="432" y="922"/>
      <point x="556" y="922" type="curve"/>
      <point x="1244" y="922" type="line"/>
      <point x="1368" y="922"/>
      <point x="1510" y="922"/>
      <point x="1660" y="922" type="curve"/>
      <point x="1698" y="1102" type="line"/>
      <point x="1548" y="1102"/>
      <point x="1406" y="1102"/>
      <point x="1282" y="1102" type="curve"/>
      <point x="594" y="1102" type="line"/>
      <point x="470" y="1102"/>
      <point x="328" y="1102"/>
      <point x="178" y="1102" type="curve"/>
    </contour>
    <contour>
      <point x="124" y="0" type="curve"/>
      <point x="584" y="0" type="line"/>
      <point x="614" y="142"/>
      <point x="640" y="262"/>
      <point x="678" y="440" type="curve"/>
      <point x="764" y="844" type="line"/>
      <point x="804" y="1032"/>
      <point x="830" y="1154"/>
      <point x="862" y="1304" type="curve"/>
      <point x="420" y="1380" type="line"/>
      <point x="388" y="1232"/>
      <point x="364" y="1120"/>
      <point x="322" y="922" type="curve"/>
      <point x="218" y="440" type="line"/>
      <point x="180" y="262"/>
      <point x="154" y="142"/>
    </contour>
    <contour>
      <point x="84" y="664" type="line"/>
      <point x="234" y="664"/>
      <point x="376" y="664"/>
      <point x="500" y="664" type="curve"/>
      <point x="1188" y="664" type="line"/>
      <point x="1312" y="664"/>
      <point x="1454" y="664"/>
      <point x="1604" y="664" type="curve"/>
      <point x="1642" y="844" type="line"/>
      <point x="1492" y="844"/>
      <point x="1350" y="844"/>
      <point x="1226" y="844" type="curve"/>
      <point x="538" y="844" type="line"/>
      <point x="414" y="844"/>
      <point x="272" y="844"/>
      <point x="122" y="844" type="curve"/>
    </contour>
  </outline>
</glyph>
<glyph name="three.dnom" format="2">
  <advance width="888"/>
  <outline>
    <contour>
      <point x="338" y="-30" type="curve" smooth="yes"/>
      <point x="632" y="-30"/>
      <point x="750" y="52"/>
      <point x="784" y="220" type="curve" smooth="yes"/>
      <point x="816" y="374"/>
      <point x="720" y="448"/>
      <point x="634" y="474" type="curve"/>
      <point x="638" y="496" type="line"/>
      <point x="738" y="514"/>
      <point x="826" y="550"/>
      <point x="850" y="658" type="curve" smooth="yes"/>
      <point x="884" y="814"/>
      <point x="746" y="954"/>
      <point x="484" y="954" type="curve" smooth="yes"/>
      <point x="344" y="954"/>
      <point x="240" y="926"/>
      <point x="140" y="892" type="curve"/>
      <point x="108" y="580" type="line"/>
      <point x="206" y="626"/>
      <point x="318" y="678"/>
      <point x="402" y="678" type="curve"/>
      <point x="468" y="678"/>
      <point x="494" y="652"/>
      <point x="484" y="616" type="curve" smooth="yes"/>
      <point x="474" y="580"/>
      <point x="434" y="562"/>
      <point x="368" y="562" type="curve"/>
      <point x="326" y="562"/>
      <point x="282" y="562"/>
      <point x="236" y="562" type="curve"/>
      <point x="194" y="362" type="line"/>
      <point x="246" y="362"/>
      <point x="294" y="362"/>
      <point x="336" y="362" type="curve"/>
      <point x="412" y="362"/>
      <point x="446" y="342"/>
      <point x="434" y="298" type="curve" smooth="yes"/>
      <point x="424" y="264"/>
      <point x="390" y="246"/>
      <point x="326" y="246" type="curve"/>
      <point x="240" y="246"/>
      <point x="120" y="292"/>
      <point x="30" y="338" type="curve"/>
      <point x="-48" y="46" type="line"/>
      <point x="16" y="8"/>
      <point x="184" y="-30"/>
    </contour>
  </outline>
</glyph>
<glyph name="zero.dnom" format="2">
  <advance width="1004"/>
  <note>
254, 251
</note>
  <outline>
    <contour>
      <point x="446" y="-30" type="curve" smooth="yes"/>
      <point x="744" y="-30"/>
      <point x="880" y="136"/>
      <point x="940" y="422" type="curve" smooth="yes"/>
      <point x="1000" y="710"/>
      <point x="880" y="954"/>
      <point x="540" y="954" type="curve" smooth="yes"/>
      <point x="238" y="954"/>
      <point x="106" y="784"/>
      <point x="46" y="500" type="curve" smooth="yes"/>
      <point x="-12" y="228"/>
      <point x="92" y="-30"/>
    </contour>
    <contour>
      <point x="452" y="256" type="curve"/>
      <point x="378" y="256"/>
      <point x="370" y="352"/>
      <point x="396" y="470" type="curve" smooth="yes"/>
      <point x="424" y="596"/>
      <point x="460" y="668"/>
      <point x="530" y="668" type="curve"/>
      <point x="600" y="668"/>
      <point x="612" y="572"/>
      <point x="586" y="448" type="curve" smooth="yes"/>
      <point x="562" y="330"/>
      <point x="526" y="256"/>
    </contour>
  </outline>
</glyph>
